<?xml version="1.0" standalone="no"?>
<!DOCTYPE svg PUBLIC "-//W3C//DTD SVG 20010904//EN"
 "http://www.w3.org/TR/2001/REC-SVG-20010904/DTD/svg10.dtd">
<svg version="1.0" xmlns="http://www.w3.org/2000/svg"
 width="1072.000000pt" height="1072.000000pt" viewBox="0 0 1072.000000 1072.000000"
 preserveAspectRatio="xMidYMid meet">
<metadata>
Created by potrace 1.14, written by Peter Selinger 2001-2017
</metadata>
<g transform="translate(0.000000,1072.000000) scale(0.100000,-0.100000)"
fill="#000000" stroke="none">
<path d="M5937 10003 c-15 -15 -5 -23 30 -23 38 0 42 6 8 12 -11 1 -23 6 -26
11 -3 4 -8 4 -12 0z"/>
<path d="M6030 9930 c0 -13 11 -13 30 0 12 8 11 10 -7 10 -13 0 -23 -4 -23
-10z"/>
<path d="M5854 9921 c5 -7 -8 -9 -36 -8 -39 3 -93 -3 -158 -18 -14 -3 -38 -8
-55 -11 -16 -3 -47 -9 -68 -14 -21 -4 -46 -7 -55 -5 -24 4 -37 -6 -21 -16 14
-9 14 -10 -68 -79 -31 -25 -29 -46 5 -59 l27 -11 -31 4 c-27 4 -32 1 -47 -32
l-16 -37 24 28 c28 31 40 34 54 10 12 -22 -32 -82 -60 -80 -10 1 -19 4 -19 7
0 4 -16 14 -35 23 -24 12 -36 13 -41 5 -4 -6 -3 -8 3 -5 11 7 73 -28 73 -42 0
-17 -51 -19 -67 -2 -15 15 -16 14 -11 -4 4 -15 0 -20 -17 -21 -14 -1 -34 14
-61 46 -35 43 -74 77 -74 66 0 -3 23 -28 50 -56 44 -46 67 -81 40 -65 -5 3
-21 3 -35 -1 -19 -5 -23 -9 -14 -15 28 -17 0 -19 -35 -3 -41 20 -45 31 -13 37
18 4 17 4 -6 6 -16 0 -26 5 -22 11 3 6 2 10 -4 10 -5 0 -17 18 -27 40 -10 23
-24 40 -33 39 -10 0 -11 -2 -4 -5 7 -3 10 -11 7 -18 -9 -23 -55 5 -48 28 4 12
2 16 -5 12 -18 -12 -12 -43 12 -63 12 -10 23 -25 25 -33 2 -8 8 -18 14 -21 6
-4 5 -9 -3 -12 -10 -4 -9 -6 4 -6 9 -1 17 -8 17 -17 0 -14 -2 -15 -17 -3 -14
12 -16 12 -9 -1 13 -23 -38 31 -59 63 -10 15 -31 35 -46 43 l-28 14 3 -45 c3
-33 0 -45 -10 -45 -8 0 -11 -6 -8 -15 6 -16 -12 -45 -27 -45 -5 0 -9 6 -9 13
0 7 -12 22 -27 33 -47 34 -60 37 -23 5 28 -25 32 -33 21 -43 -11 -11 -14 -10
-18 0 -9 23 -35 43 -52 39 -9 -1 -26 7 -38 20 -28 29 -29 29 -48 -7 -11 -21
-12 -30 -4 -30 7 0 9 -3 6 -7 -4 -3 -1 -13 5 -21 7 -8 13 -37 14 -64 0 -27 5
-53 11 -56 6 -4 13 -17 17 -29 9 -27 -18 -33 -28 -7 -3 8 -10 13 -16 9 -5 -3
-18 3 -30 15 -29 29 -38 25 -33 -16 3 -25 1 -34 -6 -30 -6 4 -14 -1 -18 -11
-13 -34 -43 -39 -43 -6 0 8 -11 28 -25 45 -29 34 -33 28 -7 -10 9 -15 22 -36
29 -47 6 -11 15 -19 20 -18 4 1 9 -10 9 -23 1 -13 -2 -21 -7 -18 -5 3 -9 0 -9
-6 0 -6 -4 -9 -9 -6 -5 4 -12 0 -14 -6 -4 -10 -8 -9 -17 2 -9 12 -10 10 -6
-12 8 -35 -3 -35 -34 -3 -13 14 -31 24 -40 23 -8 -2 -25 7 -38 19 -24 24 -42
23 -42 -3 0 -8 -5 -14 -11 -14 -6 0 -2 -15 9 -35 12 -19 19 -45 16 -59 -2 -13
1 -37 6 -52 12 -30 5 -42 -28 -49 -14 -2 -22 1 -22 11 0 8 -4 14 -10 14 -5 0
-13 0 -17 0 -5 0 -8 -14 -8 -30 l1 -30 -23 26 c-13 15 -23 31 -23 35 0 5 -11
4 -24 -2 -20 -10 -30 -8 -55 10 l-30 22 12 -23 c18 -32 69 -112 76 -118 15
-13 35 -43 24 -36 -8 4 -13 2 -13 -6 0 -10 -2 -10 -9 1 -13 20 -42 6 -38 -18
2 -11 6 -23 9 -26 3 -4 4 -15 1 -26 -5 -18 -16 -24 -37 -20 -5 1 -6 -10 -4
-24 3 -14 2 -25 -3 -25 -4 0 -14 -2 -21 -5 -9 -4 -20 5 -28 20 -7 14 -15 23
-18 20 -3 -2 1 -11 8 -20 7 -8 9 -15 5 -15 -4 0 -2 -7 5 -15 10 -13 9 -15 -9
-16 -11 -1 -25 -2 -30 -3 -9 -1 -45 30 -140 118 -24 23 -41 35 -37 29 4 -8 1
-13 -8 -13 -20 0 -20 -4 0 -41 28 -56 19 -123 -13 -97 -7 6 -13 7 -13 4 0 -4
-10 3 -22 16 -13 13 -18 17 -12 8 23 -31 76 -152 69 -158 -3 -4 -9 -2 -13 4
-4 6 -15 13 -24 17 -13 5 -17 2 -15 -11 1 -9 6 -23 10 -29 11 -17 2 -16 -33 2
-20 11 -30 12 -30 4 0 -6 -9 -9 -20 -6 -25 7 -27 -19 -3 -53 14 -21 14 -23 1
-12 -8 7 -23 10 -31 6 -15 -5 -14 -10 4 -46 l21 -40 -23 16 c-13 9 -31 16 -41
16 -10 0 -41 23 -70 50 -28 28 -54 50 -56 50 -2 0 13 -21 34 -47 21 -26 32
-43 24 -38 -8 5 -25 22 -38 37 -24 29 -48 38 -39 16 3 -7 13 -30 22 -51 l16
-39 -35 5 c-41 6 -43 0 -17 -45 11 -17 18 -35 15 -39 -2 -4 5 -28 16 -54 l20
-46 -26 20 c-27 21 -45 27 -43 14 4 -24 -4 -34 -23 -33 -13 1 -27 1 -33 0 -5
-2 -14 -4 -20 -4 -5 -1 -21 -8 -35 -16 -14 -7 -26 -13 -27 -12 -2 1 -9 2 -15
2 -9 0 -8 -4 2 -10 12 -8 12 -12 2 -18 -9 -6 -7 -13 10 -27 13 -11 17 -13 11
-5 -7 8 -13 18 -13 23 0 13 19 -2 30 -24 8 -15 8 -19 -2 -17 -7 2 -12 -2 -11
-9 3 -12 -21 -8 -42 8 -20 14 -50 14 -51 -1 -3 -39 -4 -40 -36 -35 -18 3 -41
8 -50 11 -30 9 -21 -20 22 -69 22 -25 40 -49 40 -53 0 -4 7 -15 15 -24 13 -15
13 -19 2 -29 -11 -9 -25 -7 -61 9 -42 17 -46 18 -44 3 2 -11 -8 -19 -32 -25
-107 -28 -109 -29 -104 -43 4 -9 0 -15 -7 -15 -8 0 -2 -11 14 -25 32 -28 26
-32 -15 -11 -16 8 -28 10 -28 5 0 -5 7 -12 15 -15 8 -4 15 -10 15 -16 0 -5
-14 0 -31 12 -30 22 -58 19 -28 -3 58 -44 71 -58 65 -72 -3 -8 -13 -15 -22
-15 -27 0 -62 -44 -53 -66 10 -26 10 -37 -1 -54 -7 -10 -13 -11 -17 -5 -5 6
-27 18 -50 27 l-43 16 6 -26 c4 -15 12 -34 18 -42 6 -8 -1 -5 -15 8 -25 22
-45 30 -35 13 9 -13 -15 -29 -49 -32 -16 -2 -38 -10 -48 -18 -16 -13 -15 -16
18 -38 55 -37 41 -44 -22 -10 l-58 30 30 -31 c60 -62 66 -74 40 -78 -31 -4
-62 -47 -80 -110 -19 -67 -48 -98 -104 -115 -41 -12 -41 -13 -22 -31 11 -10
30 -18 43 -19 13 0 32 -4 43 -9 18 -7 17 -8 -10 -15 -61 -14 -62 -15 -35 -35
14 -11 21 -20 16 -20 -5 0 -3 -7 4 -15 7 -8 22 -14 34 -13 11 0 41 -2 66 -6
107 -16 142 -20 282 -30 31 -2 65 -9 75 -15 10 -6 14 -11 9 -11 -6 0 -1 -7 10
-15 13 -10 15 -14 5 -15 -8 0 -28 -11 -46 -24 -24 -18 -35 -38 -45 -79 -16
-68 -53 -111 -109 -128 -41 -12 -41 -13 -22 -31 11 -10 29 -18 40 -18 24 0 51
-10 51 -19 0 -4 -12 -8 -27 -9 -38 -3 -49 -18 -24 -32 12 -6 19 -15 16 -19 -7
-12 18 -30 40 -29 18 0 80 -7 145 -17 13 -3 58 -7 100 -10 41 -4 90 -10 108
-15 19 -5 32 -5 32 1 0 5 21 7 48 4 43 -4 45 -3 27 11 -19 14 -19 15 3 20 12
4 22 10 22 14 0 9 20 8 37 -3 6 -4 15 -2 19 4 4 7 -1 16 -11 21 -26 15 3 30
29 16 19 -10 20 -10 7 5 -12 15 -11 17 3 17 9 0 16 -5 16 -11 0 -5 4 -8 8 -5
5 3 20 -6 35 -20 14 -13 32 -24 39 -24 7 1 3 9 -9 19 -27 23 -28 34 -8 65 19
28 17 41 -12 83 -29 41 -30 58 -3 43 16 -9 20 -8 20 5 0 9 -5 25 -10 36 -8 13
-7 19 0 19 6 0 13 -7 16 -15 4 -8 10 -15 16 -15 5 0 16 -7 25 -15 8 -9 18 -14
20 -11 6 6 -29 66 -39 66 -4 0 -8 6 -8 13 0 7 -9 18 -21 25 -12 7 -19 16 -16
19 3 3 1 17 -4 31 -9 24 -8 24 27 -9 20 -19 47 -44 59 -56 37 -38 78 -22 43
16 -11 11 -9 13 10 8 12 -3 22 -2 22 2 0 8 -49 35 -65 36 -13 0 -24 11 -60 59
-29 38 -29 39 -5 25 14 -8 46 -29 72 -48 27 -19 60 -40 76 -47 25 -10 28 -9
29 9 2 24 -25 74 -44 82 -8 2 -11 0 -8 -5 3 -6 3 -10 -2 -10 -12 0 -65 88 -61
102 2 6 19 -7 38 -30 18 -23 36 -39 40 -37 15 9 53 -45 52 -74 0 -16 6 -35 14
-42 11 -9 14 -8 15 7 1 31 7 55 15 62 4 4 4 -2 0 -13 -5 -15 -4 -17 4 -8 9 8
17 7 31 -5 10 -9 26 -17 36 -18 11 -2 0 14 -30 42 -44 43 -63 75 -34 58 18
-11 81 -58 87 -65 3 -3 16 -12 30 -19 l25 -12 -22 21 c-30 29 -29 37 2 17 42
-28 51 -17 12 15 -20 17 -35 35 -32 40 4 5 3 9 -2 9 -4 0 -16 15 -26 33 -17
32 -17 32 2 10 37 -44 42 -23 5 22 -20 25 -33 45 -29 45 8 0 35 -26 35 -35 0
-9 27 -35 36 -35 4 0 19 -10 33 -22 16 -15 20 -16 11 -5 -10 13 -11 20 -2 25
7 5 -3 23 -29 51 -42 45 -46 71 -6 33 13 -12 27 -19 30 -15 4 3 7 -1 7 -10 0
-10 5 -17 10 -17 6 0 10 -9 10 -20 0 -20 46 -58 57 -46 4 3 -4 16 -16 27 -14
13 -21 29 -18 40 3 11 2 17 -3 14 -10 -6 -35 23 -26 32 3 3 6 1 6 -5 0 -7 7
-12 15 -12 14 0 29 -14 70 -65 14 -17 16 -17 11 -2 -7 21 7 22 24 1 8 -8 22
-20 33 -25 17 -10 18 -8 12 13 -4 12 -12 25 -16 26 -5 2 -9 19 -9 38 0 32 2
34 26 28 24 -6 25 -5 20 26 -2 18 -14 43 -26 55 -12 13 -19 28 -16 34 4 5 24
-9 47 -32 l40 -42 -26 43 c-15 24 -24 46 -21 50 9 9 44 -27 50 -52 3 -12 16
-28 28 -35 13 -6 33 -26 45 -43 l21 -30 -3 38 c-2 21 -9 40 -15 42 -7 3 -7 9
2 20 11 13 10 15 -4 9 -9 -3 -22 1 -29 9 -10 12 -9 13 6 8 15 -6 16 -4 6 14
-7 12 -15 22 -19 22 -4 0 -16 14 -25 30 -19 32 -9 40 17 14 15 -14 16 -14 16
3 0 15 2 16 10 3 23 -35 9 19 -16 64 -14 26 -21 46 -14 46 6 0 19 -14 28 -32
9 -17 34 -50 55 -72 l38 -41 -26 49 c-28 56 -29 56 -15 56 6 0 10 -6 10 -14 0
-13 25 -46 77 -99 38 -39 60 -50 69 -35 4 7 4 10 -1 6 -12 -12 -134 111 -132
134 1 17 3 18 13 3 6 -9 17 -14 23 -13 6 2 22 -10 37 -27 l26 -30 -23 39 c-21
36 -21 39 -5 33 17 -7 17 -5 5 9 -10 12 -11 18 -3 21 8 3 9 15 4 38 -8 34 -5
39 14 36 9 -2 -1 14 -35 54 -9 11 -20 30 -24 43 -7 23 -6 23 15 5 12 -10 28
-24 35 -31 9 -8 16 -9 20 -2 4 7 17 0 32 -17 21 -24 20 -17 -11 39 -20 37 -36
69 -36 72 0 3 9 3 20 1 12 -2 18 0 15 6 -4 5 -10 7 -15 4 -8 -5 -80 95 -80
112 0 4 16 -14 35 -41 18 -26 48 -58 64 -71 17 -12 28 -25 24 -28 -3 -4 1 -7
10 -7 9 0 17 -4 17 -9 0 -5 11 -11 24 -13 l25 -5 -23 42 c-41 73 -42 74 -91
190 -26 62 -21 60 35 -15 14 -19 36 -46 48 -62 13 -15 19 -28 13 -28 -11 0 4
-57 20 -74 15 -17 21 1 9 26 -10 19 -8 18 14 -6 14 -16 26 -26 26 -22 0 7 -30
57 -40 66 -10 10 -8 45 3 52 9 6 8 11 -3 18 -8 5 -10 10 -4 10 6 0 24 -11 40
-25 27 -23 30 -24 42 -8 15 21 15 28 -2 75 -8 21 -10 35 -5 32 16 -9 10 8 -21
58 -16 26 -30 53 -30 58 0 6 -4 10 -8 10 -5 0 -15 16 -22 35 -8 20 -20 41 -27
47 -7 6 -13 15 -13 21 0 5 9 -1 20 -14 11 -13 24 -29 30 -36 5 -7 10 -15 10
-18 0 -3 16 -27 35 -54 19 -26 35 -54 35 -61 0 -7 6 -10 14 -7 7 3 27 -12 46
-34 18 -22 35 -38 37 -35 5 5 -18 48 -32 59 -6 4 -4 11 5 17 11 7 20 4 33 -13
10 -12 30 -35 43 -51 17 -21 27 -27 34 -20 8 8 6 15 -5 24 -8 7 -15 19 -15 26
0 8 -21 57 -46 109 -26 53 -45 97 -42 100 2 2 21 -24 41 -58 20 -34 46 -73 57
-87 l21 -25 -19 40 c-11 22 -20 44 -20 49 0 5 -4 12 -9 15 -14 9 -112 208
-106 214 2 3 0 15 -7 26 -6 13 -7 21 -1 21 6 0 36 -53 68 -117 32 -65 61 -119
65 -121 5 -2 8 -10 8 -17 0 -7 11 -36 25 -63 14 -28 25 -54 25 -58 0 -19 53
-69 68 -66 10 2 14 1 11 -2 -4 -4 -1 -23 6 -44 11 -32 17 -37 45 -38 33 -1 65
23 65 49 0 15 53 17 80 4 30 -15 45 -40 33 -54 -5 -7 -42 -23 -81 -35 -38 -13
-83 -35 -100 -50 -16 -16 -33 -28 -38 -28 -13 0 -11 -12 6 -34 10 -13 11 -23
5 -31 -11 -13 37 -54 70 -60 24 -5 36 13 21 28 -22 22 -10 26 22 7 17 -11 42
-24 54 -29 16 -7 20 -16 16 -32 -4 -15 -3 -20 5 -15 7 4 12 1 12 -8 0 -24 -13
-25 -54 -5 -44 21 -61 17 -46 -12 8 -14 7 -19 -2 -20 -49 -5 -78 13 -81 50 -2
32 -46 79 -57 61 -5 -8 -2 -19 7 -28 11 -11 12 -17 2 -22 -8 -5 -5 -10 10 -15
24 -7 26 -17 10 -47 -10 -18 -8 -25 11 -40 l22 -18 -33 -1 c-32 0 -33 -1 -11
-11 32 -16 27 -28 -8 -18 -16 5 -30 6 -30 3 0 -3 -8 1 -17 8 -15 13 -15 12 -6
-6 10 -17 6 -25 -25 -54 -20 -19 -30 -29 -21 -22 24 17 59 22 80 11 10 -6 20
-6 23 -2 3 5 18 9 33 8 21 -1 29 -7 31 -22 3 -19 -8 -25 -84 -50 -69 -23 -89
-34 -96 -53 -7 -19 -6 -22 5 -13 7 6 25 15 40 21 46 18 35 -21 -14 -48 -35
-20 -40 -27 -36 -49 6 -30 -21 -105 -34 -96 -5 3 -6 -2 -3 -10 3 -9 1 -16 -5
-16 -6 0 -12 5 -12 10 -1 6 -2 15 -3 20 -1 12 -56 50 -71 50 -5 0 4 -9 20 -20
17 -11 31 -29 31 -40 2 -28 -20 -25 -36 4 -13 26 -50 42 -50 23 0 -7 -11 1
-25 16 -32 33 -37 33 -52 2 -8 -19 -8 -31 0 -50 7 -14 14 -25 17 -25 3 0 5
-19 4 -42 0 -26 7 -55 19 -76 24 -40 18 -48 -21 -28 -16 8 -32 13 -36 11 -3
-3 -4 -2 -1 1 2 4 -3 13 -11 22 -20 19 -34 1 -28 -34 3 -19 1 -22 -13 -17 -13
5 -15 2 -10 -11 4 -9 3 -15 -2 -12 -5 3 -15 -1 -22 -10 -10 -13 -10 -17 1 -24
11 -7 11 -11 -2 -23 -12 -12 -18 -13 -27 -4 -9 9 -10 7 -5 -8 7 -17 5 -18 -7
-8 -13 10 -15 8 -13 -17 1 -20 -3 -30 -12 -30 -8 0 -14 4 -14 9 0 17 -31 41
-53 41 -13 0 -30 9 -40 20 -22 26 -30 25 -44 -6 -11 -24 -5 -52 17 -74 3 -3 6
-30 7 -62 3 -63 -15 -82 -48 -52 -20 18 -41 11 -33 -10 10 -26 -15 -27 -32 -1
-17 26 -49 34 -56 14 -3 -8 -9 -6 -20 4 -8 9 -18 13 -22 10 -3 -4 -6 1 -6 10
0 9 -5 17 -10 17 -15 0 9 -43 65 -118 25 -35 44 -67 41 -70 -3 -3 -6 -1 -6 4
0 5 -11 10 -25 10 -28 2 -41 -25 -27 -53 11 -21 5 -46 -9 -37 -5 3 -9 0 -9 -6
0 -7 -7 -9 -16 -6 -13 5 -15 1 -11 -21 4 -24 4 -25 -8 -10 -7 9 -17 17 -24 17
-6 0 -11 4 -11 8 0 5 -7 17 -16 28 -9 10 -4 -2 9 -28 16 -30 21 -48 14 -48 -7
0 -6 -4 3 -10 12 -8 11 -10 -7 -10 -12 0 -27 -2 -35 -5 -8 -3 -35 15 -62 40
-27 25 -51 45 -54 45 -3 0 -21 17 -40 38 -42 46 -32 24 21 -43 l39 -50 -51 54
c-54 58 -69 62 -51 15 6 -16 12 -31 12 -34 1 -3 5 -20 9 -37 4 -21 3 -31 -3
-27 -6 4 -14 1 -18 -6 -6 -9 -13 -7 -29 9 -33 33 -33 25 -1 -28 17 -26 30 -55
30 -64 0 -9 5 -19 10 -22 6 -3 10 -14 10 -22 0 -13 -7 -10 -30 12 -24 23 -30
25 -30 11 0 -11 -4 -14 -12 -10 -8 5 -9 2 -5 -9 22 -55 22 -53 1 -37 -10 8
-23 20 -27 25 -6 6 -10 6 -14 -2 -2 -7 -14 -13 -25 -13 -20 0 -20 0 1 -35 l21
-36 -21 12 c-11 6 -23 8 -27 5 -10 -11 -11 -36 -1 -36 5 0 9 -5 9 -12 0 -6 8
-21 17 -32 13 -15 10 -14 -10 3 -15 14 -27 22 -27 18 0 -3 -12 -2 -27 4 -29
10 -93 64 -93 78 0 5 -7 12 -16 15 -9 4 0 -14 20 -39 45 -54 38 -60 -9 -8 -19
21 -36 35 -40 31 -4 -3 3 -28 14 -53 l21 -48 -35 6 c-39 6 -43 -2 -20 -37 8
-12 17 -36 18 -52 2 -16 9 -40 16 -53 7 -12 9 -26 5 -29 -4 -4 -9 -1 -11 6 -3
6 -14 12 -24 12 -11 0 -17 -4 -14 -10 3 -5 -2 -11 -12 -12 -17 -1 -27 -3 -48
-8 -5 -2 -14 -4 -20 -5 -5 -1 -28 -9 -50 -19 -33 -14 -37 -19 -24 -26 9 -5 24
-21 34 -36 9 -15 12 -23 6 -20 -6 4 -11 3 -11 -3 0 -5 -12 -7 -27 -5 -55 9
-68 9 -69 -3 -1 -7 -2 -17 -3 -23 -1 -9 -56 -6 -88 5 -31 10 -6 -39 50 -100
25 -26 43 -60 28 -51 -6 4 -11 2 -11 -3 0 -6 8 -11 17 -11 9 0 14 -3 11 -6
-12 -11 -43 -11 -63 -1 -11 6 -24 10 -29 9 -4 -2 -15 3 -24 10 -13 12 -14 10
-3 -9 9 -18 9 -23 -1 -24 -17 -1 -85 -14 -98 -19 -3 -1 -12 -3 -20 -4 -9 0
-15 -10 -14 -23 0 -13 -2 -21 -4 -18 -3 3 -12 -5 -20 -17 -14 -19 -13 -22 1
-33 10 -7 17 -15 17 -19 0 -4 -13 3 -30 15 -16 13 -33 19 -37 15 -5 -5 2 -15
14 -23 47 -32 65 -53 59 -68 -3 -9 -10 -14 -15 -11 -5 4 -23 -6 -40 -20 -25
-21 -29 -29 -21 -45 14 -24 2 -73 -14 -60 -6 5 -30 16 -54 24 -47 16 -51 11
-27 -38 l15 -30 -19 23 c-20 24 -43 30 -38 10 1 -6 -9 -15 -23 -19 -14 -4 -38
-11 -54 -16 -29 -8 -49 -33 -26 -33 6 0 25 -14 43 -31 l32 -31 -57 30 c-41 21
-55 25 -49 13 5 -9 19 -23 30 -31 12 -8 21 -20 21 -27 0 -7 5 -13 12 -13 17 0
3 -10 -21 -15 -33 -6 -50 -29 -72 -97 -22 -70 -75 -128 -116 -128 -51 0 -6
-40 62 -56 24 -6 26 -8 10 -12 -11 -2 -26 -9 -34 -16 -11 -8 -13 -8 -8 1 5 7
0 9 -13 6 -23 -6 -27 -23 -5 -23 9 0 20 -11 25 -25 5 -14 15 -26 22 -26 39 -4
77 -8 113 -14 22 -4 58 -8 80 -10 22 -2 67 -6 100 -10 33 -4 80 -8 105 -10 24
-1 46 -7 48 -14 2 -6 10 -17 17 -25 16 -15 10 -27 -9 -20 -22 8 -63 -45 -80
-104 -19 -67 -39 -93 -86 -112 -36 -15 -41 -17 -62 -19 -19 -2 59 -41 81 -41
21 0 40 -19 22 -21 -6 -1 -15 -3 -21 -4 -5 -1 -20 -3 -32 -4 -21 -1 -21 -1 -1
-18 11 -10 24 -27 30 -38 7 -12 23 -20 45 -21 18 -1 56 -5 83 -9 28 -4 66 -8
85 -10 19 -2 62 -6 95 -10 33 -4 92 -8 132 -8 66 -2 70 -1 57 14 -13 15 -12
17 8 24 35 11 41 12 64 4 15 -5 21 -3 21 7 0 8 -2 12 -5 9 -5 -5 -32 20 -32
31 0 3 14 4 30 1 17 -4 30 -2 30 3 0 6 -5 10 -12 10 -6 0 -8 3 -5 6 8 9 87
-43 87 -56 0 -6 5 -10 10 -10 16 0 12 27 -5 34 -19 7 -19 35 -1 59 16 21 10
54 -14 82 -34 40 -35 48 -6 43 20 -4 26 -1 26 11 0 10 -5 22 -12 29 -25 25 9
11 44 -18 20 -16 35 -24 34 -17 -2 15 -54 87 -76 104 -11 9 -12 12 -2 13 10 0
10 4 -2 16 -9 8 -16 17 -16 20 0 13 22 -2 68 -46 62 -60 98 -69 71 -18 -15 27
-3 36 17 12 15 -18 15 -17 1 6 -8 14 -25 26 -40 28 -16 2 -39 18 -57 40 -38
46 -38 58 0 35 16 -9 30 -21 30 -25 0 -4 7 -8 15 -8 8 0 15 -4 15 -8 0 -15 77
-50 90 -42 11 7 11 14 1 37 -13 32 -51 62 -51 41 0 -14 -18 10 -49 65 -27 48
-6 50 29 2 14 -19 31 -35 38 -35 26 0 57 -44 54 -74 -2 -16 2 -32 10 -37 19
-13 34 -11 20 3 -7 7 -8 17 -1 30 12 23 38 23 54 1 11 -15 45 -28 45 -17 0 3
-21 25 -47 49 -26 25 -44 47 -40 51 5 5 98 -56 145 -96 6 -6 12 -7 12 -2 0 6
-12 17 -26 27 -35 23 -23 30 18 10 l33 -16 -32 30 c-18 16 -44 49 -58 73 -18
30 -20 36 -6 20 11 -13 26 -22 33 -20 7 3 -3 21 -25 45 -49 54 -48 68 1 18 21
-22 48 -48 61 -58 22 -18 23 -18 17 1 -10 30 17 33 43 6 35 -37 46 -17 11 22
-32 37 -36 49 -20 59 8 5 39 -24 75 -71 14 -18 14 -18 10 4 -4 21 -2 22 13 10
9 -7 27 -24 39 -38 l23 -25 -9 32 c-5 18 -12 37 -16 43 -4 6 -8 22 -10 35 -2
21 1 24 27 21 25 -3 29 -1 25 15 -6 22 -3 23 15 6 8 -6 25 -21 38 -32 l24 -20
-24 32 c-14 18 -32 35 -40 38 -21 8 -62 63 -58 76 2 6 23 -9 47 -32 l43 -44
-26 42 c-14 24 -26 45 -26 48 0 11 18 4 40 -15 13 -11 19 -20 15 -20 -4 0 5
-11 21 -25 16 -14 32 -25 35 -25 4 0 10 -10 14 -22 6 -22 7 -22 15 6 7 21 5
32 -6 44 -13 12 -13 16 -2 23 9 6 7 9 -9 9 -13 0 -23 5 -23 11 0 5 5 7 12 3 7
-5 8 -3 2 7 -8 14 -10 17 -44 58 -21 25 -20 41 2 24 19 -15 48 -12 48 5 0 17
-32 72 -42 72 -4 0 -5 7 -1 16 5 13 8 13 23 -4 9 -10 25 -34 34 -53 9 -19 24
-39 34 -46 17 -10 18 -8 14 15 -5 27 -5 27 17 8 11 -11 19 -21 17 -24 -7 -6
32 -44 72 -72 33 -22 34 -22 20 -1 -7 12 -20 24 -28 27 -8 3 -31 25 -50 49
-19 24 -41 42 -47 40 -7 -2 -17 4 -22 13 -8 14 -5 17 13 17 12 -1 27 -5 34 -9
7 -4 12 -5 12 -1 0 3 14 -9 31 -27 l30 -33 -17 30 c-10 17 -25 39 -33 50 -11
13 -3 10 24 -9 l40 -29 -29 31 c-24 26 -26 32 -12 32 13 0 16 5 12 20 -3 11
-9 29 -12 40 -3 11 -1 20 5 20 6 0 11 -5 11 -12 0 -6 3 -8 6 -5 4 4 -6 23 -22
44 -16 21 -34 48 -41 60 -11 22 -11 22 15 5 15 -9 30 -21 33 -25 4 -5 13 -7
20 -5 8 3 22 -7 32 -21 l19 -26 -7 25 c-4 14 -16 40 -26 58 -11 19 -21 41 -22
50 -3 19 -27 64 -37 72 -12 9 -60 96 -60 109 0 19 30 -15 35 -39 4 -22 42 -80
60 -92 5 -4 6 -8 1 -8 -12 0 62 -58 97 -77 33 -17 45 -12 24 9 -8 8 -18 24
-21 36 -4 12 -12 22 -17 22 -5 0 -8 3 -7 8 1 4 -14 42 -35 85 -40 85 -47 117
-18 77 11 -14 32 -40 49 -59 16 -19 34 -55 41 -83 6 -27 20 -59 32 -71 l21
-22 -11 22 c-16 32 -13 52 4 29 8 -11 18 -16 22 -12 4 4 3 10 -3 14 -24 16
-58 112 -34 97 6 -3 7 0 4 9 -9 22 9 20 31 -4 22 -25 32 -25 44 -1 7 12 7 30
1 50 -9 33 4 81 23 81 5 0 22 -14 37 -30 29 -31 64 -33 53 -2 -6 14 -7 13 -13
-2 -5 -16 -8 -15 -23 8 -10 14 -13 26 -7 26 5 0 10 -4 10 -10 0 -5 5 -10 11
-10 6 0 8 7 4 18 -5 14 -3 14 12 -3 10 -11 27 -33 37 -49 17 -26 20 -28 31
-13 10 13 18 15 48 6 21 -5 37 -14 37 -19 0 -14 -13 -12 -29 3 -11 10 -13 9
-8 -5 6 -18 -4 -24 -65 -33 -32 -5 -40 -2 -61 22 -14 15 -37 42 -51 58 -15 17
-23 22 -20 12 4 -12 2 -17 -7 -15 -8 2 -14 -3 -14 -9 0 -7 3 -12 6 -10 13 5
40 -27 34 -42 -3 -8 -3 -12 1 -8 4 3 15 -3 25 -14 18 -21 54 -22 126 -5 29 6
56 -19 44 -42 -12 -24 -4 -41 36 -83 31 -33 33 -38 18 -47 -10 -5 -15 -15 -11
-21 4 -6 11 -9 16 -6 5 3 11 1 15 -5 4 -6 11 -7 17 -4 12 8 88 -25 88 -39 0
-5 -12 -6 -27 -2 -23 5 -25 4 -14 -9 10 -12 8 -17 -11 -27 -39 -21 -49 -41
-30 -63 16 -17 16 -18 -8 -16 -14 1 -36 2 -50 1 -23 -1 -23 -2 13 -26 20 -14
37 -32 37 -40 0 -7 6 -20 13 -27 8 -7 16 -20 20 -28 3 -10 6 -7 6 8 1 12 -6
25 -14 28 -8 4 -15 10 -15 15 0 6 9 5 20 -1 11 -6 20 -18 20 -28 0 -15 2 -15
10 -2 7 11 10 11 10 2 0 -7 4 -10 10 -7 6 3 7 -1 4 -9 -3 -9 -12 -16 -19 -16
-8 0 -17 -5 -21 -12 -4 -6 -3 -8 3 -5 16 10 26 -25 11 -36 -9 -6 -8 -7 5 -3 9
3 17 1 17 -4 0 -6 -4 -10 -10 -10 -5 0 -10 -5 -10 -11 0 -5 5 -7 12 -3 7 5 8
3 3 -6 -6 -10 -12 -7 -26 11 -10 13 -19 30 -19 37 0 6 -5 12 -12 12 -6 0 -8 3
-5 7 4 3 -2 20 -13 38 -11 18 -17 35 -13 39 4 4 -1 4 -12 0 -11 -5 -14 -9 -7
-12 17 -5 15 -42 -3 -42 -8 0 -15 4 -15 8 0 5 -7 17 -16 28 -8 10 -13 14 -10
7 4 -6 1 -13 -6 -15 -8 -3 -3 -14 15 -32 15 -15 27 -31 27 -36 0 -6 4 -10 8
-10 5 0 14 -11 20 -25 10 -21 9 -25 -6 -26 -14 0 -14 -2 3 -9 15 -6 16 -9 4
-9 -18 -1 -59 39 -59 57 0 7 -4 12 -10 12 -5 0 -10 6 -10 13 0 12 -45 40 -60
38 -2 0 -5 -17 -7 -37 -1 -21 -6 -40 -10 -43 -5 -3 -8 -13 -8 -21 2 -22 -14
-40 -31 -33 -7 3 -12 8 -10 12 2 3 -13 19 -35 34 -21 16 -39 24 -39 19 0 -5
11 -14 24 -22 13 -7 27 -21 29 -31 7 -26 -20 -25 -28 0 -6 20 -41 38 -52 28
-3 -3 -17 5 -31 18 -22 21 -59 25 -47 5 3 -5 1 -11 -4 -15 -11 -6 -5 -32 14
-55 6 -8 11 -32 9 -54 -1 -24 5 -50 17 -70 28 -46 24 -60 -10 -35 -16 12 -34
18 -40 15 -6 -4 -11 0 -11 8 0 9 -4 16 -10 16 -5 0 -13 0 -17 0 -5 0 -9 -9 -9
-20 -3 -37 -4 -40 -16 -37 -8 1 -12 -6 -10 -17 2 -11 -1 -15 -7 -11 -6 3 -11
0 -11 -7 -1 -15 -23 20 -26 41 -3 16 -44 56 -44 43 0 -5 7 -15 15 -22 8 -7 15
-17 15 -23 0 -5 11 -24 24 -41 20 -27 22 -34 11 -49 -10 -14 -14 -15 -18 -5
-4 9 -6 7 -6 -4 -1 -12 -6 -15 -17 -11 -10 4 -15 1 -14 -8 5 -36 0 -42 -20
-19 -11 13 -20 27 -20 33 0 5 -11 7 -24 5 -18 -4 -31 2 -45 18 -26 30 -37 30
-46 1 -9 -28 -6 -48 8 -66 13 -15 16 -43 5 -51 -3 -3 2 -23 13 -44 10 -21 16
-43 13 -47 -9 -15 -64 -10 -64 5 0 7 -9 16 -20 19 -17 4 -19 1 -15 -20 6 -38
-5 -49 -25 -23 -18 24 -60 35 -60 16 0 -6 -5 -4 -10 4 -5 8 -10 11 -10 6 0 -5
-9 1 -20 14 -34 40 -22 6 23 -61 63 -94 63 -93 45 -86 -9 3 -21 0 -27 -6 -14
-14 -14 -54 -1 -62 13 -8 3 -26 -13 -24 -29 3 -48 -2 -42 -12 4 -6 -2 -5 -14
3 -12 7 -21 16 -21 20 0 5 -5 8 -10 8 -9 0 14 -46 30 -60 5 -5 6 -17 2 -46 -3
-16 -73 -13 -95 5 -11 9 -46 42 -79 74 -59 57 -89 74 -46 26 63 -71 72 -82 54
-69 -11 8 -35 32 -54 53 -19 21 -37 35 -39 33 -3 -3 3 -25 12 -51 10 -25 15
-48 12 -52 -4 -3 -2 -12 4 -20 9 -10 8 -13 -5 -13 -9 0 -16 -5 -16 -11 0 -7
-14 3 -31 20 -27 29 -30 30 -24 9 4 -12 11 -25 16 -28 13 -9 39 -77 32 -83 -3
-4 0 -14 8 -23 13 -16 12 -16 -8 -3 -25 15 -29 25 -12 31 7 2 5 9 -5 17 -14
12 -16 12 -9 -4 5 -14 3 -17 -10 -12 -20 8 -22 -6 -5 -36 15 -27 20 -57 11
-57 -4 0 -17 9 -29 21 -15 14 -27 18 -36 13 -7 -5 -17 -9 -23 -9 -14 -1 -7
-26 13 -48 15 -17 15 -18 -11 -8 -37 14 -42 -1 -16 -51 l22 -43 -22 20 c-12
10 -34 21 -48 23 -15 2 -45 23 -70 49 -24 25 -46 43 -49 41 -2 -3 9 -19 26
-36 16 -18 30 -36 30 -42 0 -5 -18 10 -40 33 -42 44 -54 35 -25 -19 22 -42 19
-51 -14 -46 -16 2 -32 -1 -35 -7 -4 -6 -3 -11 2 -11 11 0 36 -58 33 -77 -1 -7
5 -27 14 -44 19 -35 15 -47 -8 -24 -19 19 -37 20 -37 1 0 -18 -35 -27 -49 -13
-8 8 -11 6 -11 -5 0 -11 -6 -15 -20 -11 -12 3 -20 0 -20 -6 0 -7 -3 -10 -8 -7
-11 6 -46 -17 -50 -33 -2 -7 3 -21 11 -30 27 -32 27 -38 -4 -33 -16 2 -32 8
-35 13 -11 19 -34 9 -31 -13 2 -22 -1 -23 -56 -21 -66 3 -66 8 5 -85 26 -35
48 -71 48 -80 0 -10 -3 -13 -8 -7 -4 6 -24 11 -45 12 -21 1 -46 8 -55 15 -15
12 -16 11 -3 -4 15 -20 5 -26 -93 -53 -39 -11 -55 -19 -47 -25 11 -6 11 -8 0
-12 -11 -4 -10 -9 3 -25 26 -28 22 -36 -7 -17 -14 9 -25 12 -25 6 0 -5 7 -12
15 -16 8 -3 15 -11 15 -17 0 -7 -10 -3 -23 9 -25 23 -47 29 -47 12 0 -5 4 -10
9 -10 4 0 22 -14 40 -31 26 -24 30 -33 21 -45 -7 -7 -16 -12 -20 -9 -4 3 -20
-7 -35 -21 -19 -17 -25 -30 -19 -42 7 -16 8 -26 5 -57 -1 -15 3 -16 -93 32
-28 14 -28 14 -18 -13 12 -30 6 -44 -12 -26 -17 17 -33 15 -19 -2 10 -12 8
-17 -8 -25 -11 -6 -30 -11 -43 -11 -31 0 -69 -29 -49 -37 23 -9 77 -62 64 -63
-7 0 -13 4 -13 9 0 5 -6 11 -12 14 -7 3 -31 13 -53 22 l-40 17 37 -35 c20 -19
34 -37 31 -41 -4 -3 -1 -6 5 -6 22 0 12 -18 -12 -24 -28 -7 -63 -51 -69 -87
-10 -69 -53 -124 -106 -134 -11 -2 -29 -8 -38 -14 -15 -8 -15 -10 -3 -11 9 0
22 -6 29 -13 6 -6 16 -13 22 -13 5 -1 12 -3 17 -4 4 -1 13 -3 19 -4 17 -1 17
-20 0 -22 -6 0 -23 -2 -37 -3 l-25 -2 22 -16 c13 -8 23 -21 23 -28 0 -20 32
-43 37 -27 3 6 10 9 16 5 7 -4 19 -9 27 -10 33 -5 98 -13 160 -18 36 -3 83 -8
105 -11 22 -3 56 -6 75 -8 45 -2 68 -15 49 -27 -11 -7 -10 -9 4 -9 11 0 17 -5
14 -12 -2 -7 -10 -12 -17 -10 -15 3 -67 -52 -67 -72 0 -26 -33 -103 -52 -120
-10 -9 -42 -25 -72 -36 -30 -11 -45 -19 -34 -20 12 0 26 -5 33 -12 6 -6 19
-13 27 -15 8 -2 22 -4 30 -6 8 -2 21 -9 28 -17 10 -10 9 -11 -1 -5 -7 4 -29 4
-48 0 l-36 -6 25 -23 c13 -12 26 -28 28 -35 3 -7 25 -14 51 -16 25 -2 59 -7
74 -10 16 -3 58 -7 94 -10 81 -6 138 -13 169 -19 13 -3 29 -2 35 1 15 10 46
11 46 2 0 -4 10 -5 21 -2 19 5 19 7 5 15 -9 5 -14 14 -11 19 4 5 11 7 16 4 5
-4 9 -2 9 4 0 12 60 11 80 -2 8 -5 0 4 -18 22 l-32 31 28 0 c15 0 34 -6 42
-12 8 -7 6 -3 -4 10 l-19 22 31 -11 c17 -6 33 -17 36 -24 3 -8 14 -19 25 -25
17 -9 21 -8 21 5 0 8 -7 15 -15 15 -19 0 -20 40 -1 65 17 23 10 52 -22 90
l-25 30 32 3 c28 3 31 6 20 19 -7 8 -14 22 -15 32 -2 14 -1 14 9 1 7 -9 30
-27 52 -40 l40 -24 -30 39 c-16 22 -38 49 -47 60 -10 10 -16 25 -14 32 3 7 2
13 -3 13 -4 0 -13 12 -20 28 l-12 27 23 -22 c13 -12 39 -37 58 -56 19 -19 45
-38 58 -42 20 -6 21 -4 12 20 -14 36 -13 37 13 24 22 -11 22 -11 -2 15 -14 14
-34 26 -45 27 -20 0 -92 76 -82 86 5 5 107 -66 118 -82 4 -5 8 -6 8 -1 0 5 8
2 18 -6 26 -23 52 -30 45 -12 -7 20 17 18 33 -3 13 -16 13 -14 9 14 -4 27 -3
31 12 26 11 -4 14 -3 9 5 -4 7 -1 12 8 12 9 0 16 -4 16 -8 0 -10 50 -35 57
-29 2 3 -10 17 -28 33 -51 47 -69 67 -64 72 4 5 69 -33 88 -52 20 -20 67 -49
72 -44 3 3 -6 11 -20 18 -14 7 -25 17 -25 22 0 12 12 9 34 -7 35 -27 41 -16 7
12 -18 15 -37 37 -42 48 -5 11 -16 31 -26 45 l-17 25 23 -22 c12 -13 27 -23
33 -23 10 0 -3 19 -44 62 -10 10 -18 23 -18 30 0 6 11 -2 25 -18 14 -16 25
-32 25 -36 0 -5 5 -8 12 -8 6 0 22 -10 35 -22 19 -17 23 -19 17 -5 -4 10 -1
17 6 17 7 0 -6 20 -29 45 -22 24 -41 50 -41 56 0 7 8 3 17 -8 10 -11 26 -22
35 -26 10 -3 24 -22 32 -41 15 -36 50 -63 61 -47 3 6 -1 13 -8 18 -8 4 -27 28
-42 53 -16 25 -22 39 -13 33 8 -7 17 -10 20 -7 3 2 24 -16 46 -41 31 -35 39
-40 35 -23 l-6 23 29 -25 c16 -14 30 -28 32 -33 2 -4 8 -4 13 -1 6 3 4 16 -6
30 -9 14 -18 39 -20 55 -3 28 -1 30 18 25 11 -3 27 0 34 6 10 8 20 5 38 -12
50 -47 23 -3 -30 49 -30 29 -55 60 -55 69 0 11 16 1 46 -28 l46 -45 -27 43
c-15 23 -25 45 -22 49 9 8 47 -27 47 -43 0 -7 14 -21 30 -31 17 -9 30 -23 30
-30 0 -7 4 -13 9 -13 16 0 19 24 5 52 -11 21 -11 28 -1 31 6 3 2 6 -10 6 -12
1 -25 5 -28 11 -4 6 1 7 10 3 15 -5 15 -3 4 16 -8 11 -17 21 -21 21 -5 0 -8 7
-8 15 0 8 -4 15 -9 15 -5 0 -11 7 -14 14 -4 11 -1 13 11 9 9 -4 20 -11 24 -17
5 -7 8 -7 8 2 0 7 4 10 10 7 6 -4 9 5 8 19 -1 15 -6 26 -10 26 -4 0 -8 7 -8
15 0 8 -5 15 -12 15 -6 0 -8 3 -5 7 4 3 2 12 -4 20 -7 8 -8 13 -1 13 5 0 26
-24 45 -53 38 -57 67 -87 67 -69 0 6 -5 14 -10 17 -6 4 -8 11 -4 16 7 11 44
-23 44 -40 0 -6 15 -21 33 -34 62 -46 61 -40 -2 26 -36 36 -68 64 -72 61 -5
-2 -13 6 -20 18 -11 21 -11 22 4 9 14 -11 17 -11 17 0 0 10 3 10 12 1 7 -7 18
-12 25 -12 8 0 25 -12 39 -27 l25 -28 -18 30 c-10 17 -25 36 -33 43 -13 11
-11 12 10 6 22 -6 23 -5 11 10 -12 14 -11 16 4 16 12 0 15 5 11 16 -8 22 -17
72 -10 57 3 -7 10 -13 15 -13 10 0 -8 41 -21 50 -4 3 -17 22 -29 43 l-21 38
32 -24 c50 -36 62 -43 54 -26 -4 8 4 2 18 -14 14 -15 27 -27 30 -27 3 0 -11
29 -30 65 -36 67 -36 65 9 69 6 1 11 -5 9 -12 -1 -8 2 -11 8 -7 5 3 10 1 10
-5 0 -6 5 -8 10 -5 6 3 10 3 10 -2 0 -4 11 -13 25 -20 25 -11 25 -10 -11 55
-40 75 -96 203 -91 209 2 1 24 -23 49 -55 29 -37 50 -77 57 -109 7 -28 19 -54
27 -57 17 -7 18 6 2 22 -9 9 -9 12 0 12 7 0 15 -6 18 -14 3 -8 12 -17 20 -20
9 -3 4 9 -11 29 -27 34 -40 101 -23 111 5 4 23 -6 38 -21 l29 -28 10 26 c11
27 6 74 -10 93 -5 6 -6 14 -3 17 6 5 -24 64 -93 185 -42 72 -16 46 49 -50 47
-70 63 -102 63 -128 0 -27 5 -35 20 -37 15 -2 16 -1 5 5 -8 4 -16 16 -17 27
-1 20 -1 20 13 1 10 -15 14 -16 14 -5 0 8 -3 19 -7 25 -5 5 1 -1 12 -13 24
-27 35 -29 35 -8 0 8 -3 15 -8 15 -4 0 -13 9 -19 20 -9 14 -10 21 -1 26 6 4 8
3 4 -4 -3 -5 -3 -12 2 -14 10 -4 52 -64 52 -73 0 -4 -7 -2 -15 5 -8 7 -15 9
-15 6 0 -8 26 -36 33 -36 10 0 2 38 -15 70 l-19 35 23 -25 c13 -14 32 -38 44
-54 12 -17 26 -26 33 -22 8 5 7 11 -4 22 -8 9 -15 22 -15 30 0 8 -18 51 -41
95 -71 143 -76 170 -10 60 23 -38 52 -77 64 -87 12 -11 16 -12 10 -4 -6 9 -42
74 -79 145 -36 72 -70 135 -76 142 -6 7 -5 14 2 18 7 4 7 11 2 18 -12 17 -43
97 -37 97 3 0 55 -102 116 -227 60 -126 117 -240 124 -254 13 -23 13 -28 1
-32 -7 -3 -13 -14 -12 -24 1 -17 43 -93 52 -93 5 0 -7 33 -17 46 -5 6 -6 14
-2 17 3 4 1 7 -5 7 -24 0 -12 36 12 38 19 1 41 -18 34 -31 -4 -7 24 -47 31
-42 12 7 71 -15 71 -26 0 -5 -3 -8 -7 -8 -23 4 -53 -2 -53 -10 0 -5 11 -12 25
-15 14 -4 25 -11 25 -16 0 -6 11 -8 25 -4 28 7 32 -5 13 -36 -16 -25 -13 -27
51 -34 34 -3 69 -15 93 -31 21 -14 44 -25 51 -24 7 1 23 1 37 0 19 -1 21 -4
11 -10 -8 -5 -24 -8 -37 -6 -16 1 -24 -4 -28 -21 -4 -13 -11 -24 -17 -24 -6 0
-8 -4 -5 -9 3 -5 -8 -38 -24 -74 -27 -60 -33 -67 -65 -73 -50 -9 -38 -14 43
-19 39 -2 79 -8 90 -14 12 -6 31 -11 43 -11 l22 0 -24 -26 c-23 -25 -23 -26
-5 -39 10 -8 22 -12 26 -10 5 3 11 -2 14 -10 4 -11 13 -14 31 -9 29 7 32 -6 9
-41 -10 -16 -12 -25 -5 -25 6 0 29 -12 51 -26 32 -21 39 -31 37 -53 -7 -57
-26 -70 -102 -68 -84 2 -93 17 -43 67 24 24 26 29 8 17 -33 -22 -37 -22 -54
11 l-14 27 -11 -29 c-7 -16 -14 -56 -16 -90 -6 -71 -12 -95 -32 -117 -12 -15
-9 -18 27 -33 50 -20 47 -20 53 4 8 31 51 16 109 -39 54 -51 77 -63 95 -49 6
5 14 5 16 1 11 -17 -11 -35 -49 -40 -36 -5 -37 -4 -24 13 13 15 13 17 0 12 -8
-3 -31 3 -51 13 -36 18 -37 18 -32 0 3 -11 16 -22 30 -26 20 -5 23 -9 14 -18
-21 -21 -13 -43 17 -41 64 3 73 5 67 14 -12 19 14 10 38 -14 23 -23 32 -56 15
-56 -4 0 -8 -4 -8 -10 0 -5 9 -10 20 -10 14 0 20 -7 20 -24 0 -19 -4 -22 -25
-18 -15 2 -25 0 -25 -7 0 -10 22 -16 44 -12 21 4 -16 -27 -56 -47 -46 -22 -88
-20 -88 4 0 8 7 17 15 20 8 4 15 9 15 13 0 5 -50 26 -85 34 -5 1 -15 5 -20 9
-6 4 -30 9 -54 12 -43 4 -43 4 -24 -16 18 -21 18 -21 -6 -15 -16 4 -21 3 -14
-4 6 -6 20 -11 32 -12 24 -1 38 -34 22 -50 -6 -6 -11 -14 -11 -18 0 -3 60 -6
134 -5 129 1 134 0 130 -19 -6 -35 -27 -65 -44 -65 -45 0 -24 -33 28 -43 17
-4 32 -3 32 2 0 5 15 5 34 1 25 -5 36 -4 40 5 2 7 -4 15 -15 18 -10 3 -19 10
-19 15 0 14 40 11 41 -3 0 -5 2 -28 4 -50 1 -22 -3 -50 -10 -61 -13 -21 -11
-34 6 -34 5 0 6 7 2 16 -4 12 0 14 21 8 30 -7 35 9 10 37 -19 21 -11 39 17 39
10 0 19 4 19 9 0 5 7 12 17 15 18 7 66 -31 57 -45 -3 -5 4 -9 14 -9 11 0 22
-6 25 -13 9 -23 -10 -40 -49 -44 -34 -4 -36 -3 -23 13 12 16 12 17 -1 9 -8 -4
-25 -17 -37 -28 -13 -11 -33 -21 -45 -23 -13 -1 -24 -3 -25 -4 -2 -2 -6 -3
-10 -4 -5 -1 -16 -6 -25 -11 -15 -9 -15 -12 -2 -30 13 -17 17 -18 27 -5 28 35
88 52 102 29 5 -7 14 -4 26 7 10 9 19 13 19 9 0 -5 5 -4 12 3 15 15 29 15 26
0 -2 -7 6 -12 17 -12 11 0 22 -3 25 -6 3 -3 22 -14 43 -25 21 -11 35 -25 33
-32 -3 -7 2 -19 10 -28 17 -16 64 -21 64 -6 0 5 3 16 6 25 3 9 1 16 -6 16 -18
0 -38 24 -42 51 -2 15 -9 23 -18 21 -16 -2 -17 -3 46 46 16 12 38 29 49 37 18
14 18 14 1 8 -12 -4 -22 0 -28 10 -8 15 -13 15 -43 3 -18 -8 -36 -11 -40 -8
-4 4 -10 7 -13 7 -11 0 -57 35 -47 35 6 0 5 4 -1 8 -8 5 -5 13 8 27 12 12 18
14 16 6 -2 -9 7 -14 23 -15 25 -1 26 -1 12 21 -9 13 -20 23 -25 23 -7 0 -7 5
0 13 16 19 69 20 76 2 3 -9 18 -15 34 -15 16 0 31 -3 35 -6 8 -9 -4 -35 -13
-29 -5 3 -12 1 -15 -5 -5 -7 9 -10 39 -9 65 4 72 13 26 35 -22 10 -38 24 -36
31 3 7 -3 10 -14 8 -30 -6 -35 14 -10 47 12 16 20 35 17 41 -2 7 -5 16 -5 21
0 5 -4 12 -9 15 -22 15 -53 70 -43 76 6 4 7 11 4 17 -4 6 -2 8 4 4 17 -10 23
10 7 24 -8 7 -15 19 -15 27 0 9 -6 13 -14 10 -26 -10 -51 92 -26 108 6 3 10 1
10 -6 0 -6 8 -9 20 -6 12 3 35 1 53 -4 29 -8 30 -7 13 6 -10 8 -24 12 -29 8
-6 -4 -8 0 -4 11 6 15 3 17 -18 12 -14 -4 -25 -2 -25 4 0 5 4 10 10 10 5 0 7
13 5 30 -3 23 0 30 13 30 12 1 10 5 -8 15 -24 14 -22 16 20 19 11 0 20 6 20
11 1 6 8 21 16 33 9 13 13 34 10 46 -4 17 -1 22 15 23 45 4 58 48 37 130 -14
52 -22 62 -47 58 -22 -3 -32 15 -20 37 11 20 5 51 -14 70 -35 37 -54 75 -50
105 2 17 -1 34 -7 38 -5 3 -10 12 -10 18 0 8 3 8 9 -1 6 -11 11 -10 25 3 20
20 20 35 2 61 -13 17 -12 21 5 40 13 14 17 24 10 29 -16 9 -13 25 5 25 8 0 12
-4 9 -10 -3 -6 1 -7 10 -4 12 5 15 13 9 33 -12 47 -11 82 3 97 8 8 11 14 7 14
-4 0 3 11 16 25 13 14 28 25 33 25 6 0 0 -9 -13 -20 -13 -11 -20 -20 -16 -20
4 0 2 -9 -3 -19 -9 -17 -8 -18 12 -13 12 3 33 14 46 24 26 20 41 17 22 -5 -16
-20 -10 -48 17 -82 13 -16 21 -37 19 -47 -6 -22 -3 -22 17 -3 13 14 15 13 13
-5 -1 -11 -6 -20 -11 -20 -5 0 -6 -3 -3 -7 4 -3 0 -14 -8 -23 -12 -13 -13 -22
-3 -48 10 -27 9 -34 -7 -53 -20 -22 -20 -22 0 -9 19 12 106 109 124 139 4 7
15 13 23 15 9 1 24 8 34 16 14 11 12 7 -5 -18 -12 -17 -29 -32 -37 -32 -16 0
-18 -9 -5 -29 9 -13 51 -7 51 8 0 12 40 10 40 -2 1 -7 12 2 26 18 22 26 25 27
22 9 -2 -11 3 -28 11 -38 7 -9 13 -36 13 -61 -1 -36 1 -43 15 -38 9 3 -7 -28
-36 -70 -28 -43 -56 -77 -61 -77 -6 0 -10 -6 -10 -12 0 -7 18 6 40 29 22 23
40 39 40 35 0 -4 -16 -25 -36 -46 -19 -21 -34 -40 -31 -42 5 -5 125 55 132 67
4 5 15 14 26 19 19 10 19 10 2 -25 -15 -32 -11 -63 5 -40 4 6 18 11 31 13 14
1 33 10 43 19 16 15 18 15 18 0 0 -9 -4 -19 -10 -22 -5 -3 -10 -10 -10 -16 0
-13 34 -11 47 2 22 22 21 -8 -1 -31 -18 -20 -20 -29 -12 -47 13 -27 19 -28 40
-8 21 22 27 19 20 -10 -8 -30 0 -31 51 -4 l40 21 -19 -21 c-11 -11 -16 -21
-13 -21 3 0 0 -18 -8 -40 -13 -37 -13 -41 6 -50 14 -8 19 -20 17 -41 -1 -17
-6 -33 -10 -35 -4 -3 -5 -11 -1 -20 5 -13 9 -13 31 2 15 10 36 26 47 37 11 10
37 27 58 38 l37 19 0 -29 c0 -16 -4 -32 -9 -35 -5 -4 -3 -18 5 -34 11 -23 21
-73 26 -139 1 -7 10 -13 20 -13 13 0 17 -4 12 -12 -5 -7 5 -3 20 10 16 12 34
22 40 22 6 0 -2 -11 -18 -23 -20 -16 -24 -24 -13 -24 9 0 14 4 12 8 -3 3 4 9
15 12 27 7 25 -5 -7 -37 -16 -16 -23 -30 -17 -36 6 -6 17 2 29 19 16 25 63 61
78 61 2 0 2 -11 -1 -25 -3 -17 4 -34 22 -55 14 -18 26 -27 26 -22 0 14 37 21
48 10 11 -11 26 -2 60 34 9 10 21 18 27 18 5 0 -8 -17 -30 -38 -36 -33 -106
-150 -81 -134 6 3 22 8 36 10 24 3 24 3 5 -18 -11 -12 -15 -21 -10 -20 26 6
37 -1 30 -17 -24 -61 -6 -77 38 -37 26 24 28 25 12 4 -11 -13 -29 -33 -40 -43
-22 -21 -4 -13 37 15 34 24 51 23 43 -1 -4 -14 1 -25 20 -37 32 -21 32 -29 -7
-66 -25 -23 -28 -29 -13 -25 11 3 31 8 45 12 24 5 24 5 3 -4 -28 -13 -29 -20
-3 -20 11 -1 28 -1 38 -2 9 0 62 9 117 21 132 28 124 26 175 40 25 7 56 14 70
17 27 5 35 10 35 23 0 5 23 24 50 42 36 23 45 33 33 36 -10 2 -18 10 -18 17 0
9 -6 12 -15 9 -9 -4 -15 0 -15 10 0 9 5 16 11 16 6 0 9 9 6 20 -3 11 1 44 9
73 7 28 14 60 14 71 0 17 -1 17 -25 2 -31 -20 -41 -21 -25 -1 11 13 10 14 -4
9 -9 -3 -19 -17 -22 -29 -3 -13 -13 -26 -21 -29 -13 -5 -13 -2 1 20 13 19 15
32 8 53 -11 31 -1 56 32 83 11 10 16 18 10 18 -6 0 -23 -11 -38 -25 -14 -13
-26 -19 -26 -14 0 6 -4 7 -10 4 -20 -12 -9 8 22 41 18 19 38 34 45 34 16 0 23
13 14 28 -5 9 -14 9 -39 0 -30 -11 -34 -10 -65 21 -38 36 -85 44 -115 19 -36
-32 -45 -33 -40 -5 3 15 0 28 -6 30 -6 2 18 13 54 24 36 10 65 24 65 30 0 7
15 22 34 35 46 31 53 53 15 45 -27 -5 -27 -4 -9 9 16 12 17 14 2 14 -9 0 -17
5 -17 10 0 6 5 10 11 10 6 0 9 9 6 19 -4 16 3 21 41 31 26 6 41 14 35 18 -8 5
2 17 25 32 50 33 67 50 52 50 -7 0 -9 7 -6 17 6 16 6 16 -12 0 -10 -9 -23 -17
-28 -17 -5 0 -2 5 6 10 13 9 13 11 0 20 -11 7 -12 12 -3 18 7 4 11 16 9 27 -2
11 3 40 10 65 8 25 14 55 14 68 0 20 -2 21 -22 10 -13 -7 -26 -17 -30 -23 -4
-5 -8 -6 -8 -1 0 5 8 19 18 30 17 20 16 20 -3 6 -24 -18 -35 -32 -30 -40 1 -3
-3 -11 -11 -18 -17 -15 -18 -8 -3 19 7 14 7 29 1 49 -11 29 3 60 38 87 8 7 10
13 4 13 -6 0 -19 -9 -29 -20 -21 -23 -45 -26 -45 -7 0 16 47 61 72 70 11 4 15
12 12 22 -8 20 -34 19 -49 -1 -11 -15 -16 -13 -51 18 -54 48 -66 50 -119 22
-41 -21 -46 -22 -44 -7 3 38 0 48 -13 35 -7 -7 -19 -12 -28 -12 -12 1 -10 5 6
18 11 10 29 31 40 47 22 34 16 31 -61 -24 -27 -20 -46 -30 -41 -23 4 6 -10 2
-31 -9 -34 -19 -32 -15 25 41 72 70 78 97 17 74 -20 -8 -20 -8 -1 21 l19 30
-32 -30 c-17 -16 -29 -35 -27 -41 8 -20 -76 -95 -91 -81 -3 4 20 40 52 81 34
45 55 81 52 90 -4 11 -1 13 11 10 15 -5 15 -4 -1 6 -22 14 -50 6 -83 -25 -17
-16 -21 -24 -12 -27 8 -3 4 -9 -11 -17 -18 -10 -25 -10 -31 -1 -5 9 -12 6 -23
-10 -8 -12 -21 -20 -28 -18 -13 4 37 45 56 47 6 0 11 9 13 21 4 24 39 50 68
50 28 0 54 10 54 20 0 5 -9 7 -20 5 -12 -2 -23 2 -27 11 -4 11 -9 12 -19 3
-24 -20 -15 -1 14 29 57 61 34 71 -26 12 -56 -57 -62 -33 -7 31 46 54 61 87
25 54 -23 -21 -27 -4 -4 19 8 9 12 21 9 27 -4 6 -15 -1 -28 -18 -12 -15 -29
-29 -37 -31 -8 -2 -22 -9 -30 -16 -31 -27 -44 -28 -21 -3 36 40 21 41 -24 2
-22 -19 -44 -35 -50 -35 -5 0 10 18 35 40 34 30 41 39 26 40 -18 0 -18 1 2 19
22 18 31 38 13 27 -5 -4 -11 -1 -13 6 -3 7 -19 -2 -42 -23 -21 -19 -44 -38
-52 -42 -13 -7 -13 -6 -2 12 7 12 16 21 20 21 5 0 8 7 8 15 0 9 19 24 44 34
41 18 62 42 49 55 -4 3 -13 0 -22 -8 -28 -24 -97 -60 -82 -42 7 9 10 16 5 16
-5 0 14 21 41 46 28 26 40 41 27 34 -22 -11 -23 -10 -13 8 5 10 17 24 25 32 9
7 16 19 16 27 0 11 -4 12 -22 1 -13 -7 -26 -12 -30 -13 -3 0 -9 -3 -12 -6 -4
-3 -17 -4 -30 -2 -19 4 -22 10 -18 31 4 20 2 24 -10 19 -9 -3 -20 -1 -26 5 -6
6 -20 -1 -41 -21 -30 -30 -51 -39 -51 -24 0 4 19 27 43 51 l42 45 -40 -27
c-47 -31 -65 -33 -58 -6 3 10 10 18 16 17 6 -1 16 8 22 21 7 12 20 29 30 36
19 13 13 36 -8 36 -7 0 -30 -15 -52 -32 -22 -18 -36 -27 -32 -20 15 22 -11 12
-45 -18 -35 -33 -54 -39 -44 -15 3 8 9 22 12 31 11 27 -47 14 -82 -19 -19 -17
-34 -25 -38 -19 -6 11 37 48 82 71 12 7 20 16 17 21 -3 5 -1 11 5 15 5 3 10
11 10 18 0 8 -3 8 -12 -1 -7 -7 -21 -12 -31 -12 -11 0 -26 -8 -34 -17 -12 -15
-14 -16 -10 -2 3 9 0 22 -6 28 -8 8 -8 11 1 11 7 0 12 11 12 25 0 14 6 28 14
31 13 5 31 34 22 34 -2 0 -19 -14 -36 -30 l-33 -31 -20 25 -19 24 -34 -20
c-32 -19 -34 -19 -34 -2 0 14 -8 11 -37 -17 -71 -66 -76 -68 -54 -18 11 24 17
47 14 52 -3 5 5 19 18 33 22 24 20 33 -4 14 -49 -40 -110 -80 -114 -76 -3 3
-23 -14 -44 -37 -22 -23 -39 -37 -39 -31 0 6 12 21 26 35 28 26 74 109 74 134
0 8 4 15 9 15 5 0 7 9 4 20 -4 17 -10 14 -47 -23 -23 -23 -79 -71 -125 -106
-73 -55 -81 -59 -60 -30 47 68 94 124 104 124 21 1 61 27 80 53 l19 26 -39
-24 -39 -24 17 24 c28 41 19 47 -13 8 -31 -38 -86 -59 -76 -29 5 13 4 13 -8
-1 -7 -10 -16 -18 -20 -18 -9 0 1 49 13 64 7 9 7 16 -1 24 -18 18 -42 14 -84
-14 -21 -15 -33 -20 -26 -11 7 8 10 22 6 31 -3 9 -1 16 6 16 6 0 8 -4 5 -10
-3 -5 -1 -10 5 -10 7 0 9 8 5 21 -5 14 -3 19 3 15 6 -3 14 -1 18 5 4 8 3 9 -4
5 -20 -12 -13 6 11 32 15 17 18 26 10 29 -7 3 -13 11 -13 19 0 18 -23 8 -35
-15 -65 -125 -65 -126 -43 -96 13 16 33 41 46 55 22 23 22 22 -2 -17 -15 -24
-25 -48 -24 -55 2 -7 -3 -12 -10 -10 -8 1 -11 -2 -7 -7 6 -10 -14 -37 -75
-100 -19 -20 -45 -49 -58 -65 -12 -16 -22 -26 -22 -22 0 9 73 110 82 114 5 2
8 9 8 17 0 7 7 18 15 25 8 7 12 17 8 23 -4 6 -1 7 7 2 8 -5 11 -3 8 6 -3 8 0
23 6 34 6 11 15 34 22 51 9 25 8 31 -2 30 -8 -1 -17 -6 -21 -11 -4 -4 -2 -5 6
0 9 5 12 3 9 -6 -3 -8 -12 -13 -22 -11 -9 2 -16 -2 -16 -8 0 -6 5 -8 10 -5 20
12 9 -11 -17 -35 l-26 -25 13 25 c8 14 13 33 11 43 -1 9 3 17 8 17 6 0 11 5
11 11 0 6 9 24 20 39 14 20 16 30 8 32 -12 4 -61 -41 -115 -107 -25 -30 -33
-35 -33 -20 0 10 8 28 19 39 10 12 22 34 25 51 7 26 1 22 -50 -33 -31 -34 -59
-60 -61 -58 -3 2 4 13 14 25 10 11 30 35 45 53 15 18 38 47 53 63 14 17 30 47
37 67 6 21 19 46 30 57 20 22 24 46 8 56 -5 3 -10 2 -10 -3 0 -4 -25 -35 -55
-67 -30 -33 -55 -56 -55 -51 0 5 -7 3 -15 -4 -12 -10 -15 -10 -15 0 0 7 -7 10
-16 6 -9 -3 -12 -2 -9 4 4 6 9 23 11 38 3 15 9 29 15 30 5 2 9 8 9 14 0 16
-28 -11 -36 -34 -3 -11 -16 -35 -28 -53 -11 -18 -43 -70 -71 -114 -37 -60 -55
-80 -68 -77 -10 2 -14 0 -11 -6 6 -10 -12 -28 -28 -28 -18 0 -4 27 57 112 36
50 65 97 65 105 0 8 4 12 8 9 4 -2 9 5 9 17 2 22 2 22 -18 -2 -10 -13 -19 -19
-20 -15 0 5 -5 -2 -10 -16 -7 -16 -13 -20 -17 -13 -4 7 -13 9 -21 4 -7 -5 -12
-10 -10 -12 4 -7 -56 -88 -70 -94 -9 -3 -11 0 -7 10 6 15 -25 55 -43 55 -5 0
2 20 16 45 13 25 22 45 18 45 -3 0 4 15 16 33 12 17 16 26 9 19 -21 -18 -28
-15 -22 13 2 14 7 23 11 21 6 -4 9 17 13 86 0 17 7 28 16 28 8 0 12 6 9 14 -7
18 12 26 36 14 26 -13 21 9 -5 24 -24 13 -29 14 -50 17 -9 1 -8 4 2 11 13 8
13 11 -3 22 -16 12 -13 13 27 13 24 0 44 2 43 5 -1 3 2 22 7 43 5 25 3 43 -5
53 -9 12 -5 14 25 14 21 0 44 7 53 16 14 14 14 16 -3 29 -18 13 -18 14 -1 27
16 12 14 16 -33 52 -59 45 -74 68 -57 85 9 10 5 11 -18 8 -34 -5 -65 8 -65 26
0 8 14 26 30 42 35 34 39 65 9 72 -12 3 -16 9 -10 12 13 8 -54 84 -84 96 -17
6 -14 9 23 22 35 12 42 19 42 41 0 33 35 60 44 35 5 -13 9 -13 22 -2 14 11 14
13 -1 21 -8 5 -37 11 -63 12 -60 4 -60 4 -42 16 9 5 19 5 27 -2 7 -6 13 -6 13
-1 0 5 12 8 28 7 25 -1 60 11 72 25 3 3 23 22 44 41 34 31 38 32 33 13 -7 -30
-1 -29 29 5 l26 27 -18 -32 c-10 -18 -21 -33 -25 -33 -4 0 -9 -9 -12 -20 -6
-24 12 -26 53 -5 26 14 30 14 30 1 0 -8 -5 -18 -10 -21 -6 -4 0 -18 15 -37 22
-26 30 -47 26 -70 -2 -14 11 -9 24 8 10 15 12 14 11 -7 -1 -13 -9 -33 -18 -43
-15 -16 -16 -27 -9 -65 1 -2 9 3 19 10 16 13 16 12 1 -6 -9 -11 -19 -29 -23
-40 -6 -19 60 45 117 113 15 19 27 28 27 21 0 -8 7 -6 20 6 32 29 23 0 -10
-33 -16 -17 -30 -35 -30 -41 0 -15 36 -14 52 2 20 18 38 19 45 2 4 -13 10 -9
25 16 16 26 22 29 29 18 5 -8 6 -27 3 -43 -4 -19 -3 -26 5 -22 11 7 15 -4 12
-36 -3 -22 1 -22 42 -3 24 12 28 12 15 2 -10 -8 -18 -17 -18 -21 0 -9 -43 -70
-52 -74 -5 -2 -8 -8 -8 -13 0 -11 -9 -23 -52 -71 -45 -50 -31 -47 18 5 59 60
70 62 14 1 -23 -25 -40 -48 -37 -51 3 -2 25 7 50 21 24 14 46 23 50 20 3 -3
19 9 36 28 32 34 45 20 16 -18 -20 -26 -19 -33 5 -31 11 1 20 5 20 9 0 4 3 8
8 7 14 -2 52 13 52 21 0 4 8 11 17 14 16 6 16 6 0 -12 -22 -24 -12 -34 19 -20
34 16 40 4 14 -31 -12 -18 -16 -31 -10 -31 7 0 10 -6 7 -14 -9 -22 3 -26 29
-9 23 15 24 14 24 -12 l0 -27 45 26 c47 28 56 28 28 1 -9 -10 -18 -28 -19 -41
-1 -13 -5 -33 -9 -44 -5 -14 -2 -20 10 -20 9 0 13 -4 10 -10 -3 -5 -1 -10 5
-10 8 0 10 -9 5 -27 -20 -78 -18 -78 62 -20 32 24 71 49 87 55 l29 13 -7 -33
c-3 -17 -11 -35 -16 -38 -7 -4 -5 -19 4 -41 7 -19 16 -52 19 -74 2 -22 8 -48
12 -57 9 -22 36 -31 49 -18 8 8 6 9 -8 4 -16 -6 -17 -5 -7 14 7 12 13 22 16
22 2 0 12 3 22 7 16 6 16 5 4 -10 -8 -10 -11 -20 -8 -24 4 -3 1 -13 -6 -22
-11 -14 -10 -15 7 -1 18 14 46 22 46 13 0 -3 -11 -14 -25 -25 -14 -11 -25 -26
-25 -34 0 -23 13 -16 40 21 14 19 32 35 41 35 8 0 20 5 25 10 7 7 9 1 6 -20
-6 -38 33 -83 59 -69 10 5 25 6 33 3 10 -4 30 6 51 25 53 46 54 37 2 -15 -25
-25 -49 -58 -52 -75 -4 -16 -11 -31 -16 -34 -20 -13 -8 -24 17 -15 35 14 42
12 21 -4 -17 -13 -17 -15 -2 -24 13 -7 16 -18 12 -45 -2 -20 -2 -38 0 -41 3
-3 22 7 42 21 l36 26 -32 -32 c-41 -40 -42 -49 -4 -22 16 12 34 21 39 21 6 0
13 6 16 13 3 6 3 1 0 -13 -4 -19 2 -34 20 -53 27 -29 25 -53 -4 -62 -10 -3
-23 -12 -29 -19 -9 -11 -6 -12 14 -8 14 2 25 0 25 -5 0 -19 146 1 310 42 57
15 88 21 112 24 3 1 20 15 36 31 17 17 35 30 40 30 10 0 42 33 42 44 0 5 -8 5
-17 2 -15 -5 -14 -3 2 10 20 16 20 16 -2 11 -25 -6 -38 6 -27 24 4 7 8 29 9
49 1 21 5 42 9 48 9 14 18 82 11 82 -3 0 -17 -8 -32 -17 l-26 -17 13 24 c12
23 12 24 -4 10 -10 -8 -22 -24 -27 -37 -5 -13 -13 -23 -19 -23 -6 0 -3 11 5
24 15 23 14 32 -6 66 -5 7 34 70 43 70 4 0 8 5 8 12 0 6 -7 4 -18 -5 -10 -10
-22 -14 -27 -10 -4 5 -5 3 -1 -4 3 -6 2 -14 -4 -18 -5 -3 -10 0 -10 7 0 9 -3
9 -10 -2 -6 -10 -10 -11 -10 -3 0 15 65 84 72 77 3 -2 11 2 18 11 10 12 9 16
-5 21 -10 4 -26 2 -36 -4 -24 -15 -21 -16 -55 14 -16 14 -42 32 -59 40 -29 13
-29 13 -5 14 19 0 22 2 10 10 -12 7 -11 10 5 16 50 19 99 99 54 87 -21 -6 -36
16 -19 27 7 4 9 13 5 19 -8 14 2 62 13 59 17 -4 62 15 62 27 0 7 18 24 40 39
45 30 51 46 18 47 -22 1 -22 1 2 9 l25 8 -27 1 c-28 1 -37 14 -18 26 5 3 7 12
4 19 -3 8 0 34 6 57 7 24 14 57 17 73 l5 29 -26 -16 c-33 -22 -39 -21 -26 3 9
16 8 18 -5 14 -8 -4 -15 -10 -15 -15 0 -5 -5 -9 -12 -9 -6 0 -9 3 -6 6 4 3 2
19 -2 35 -7 24 -4 34 16 58 13 16 24 33 24 37 0 5 -4 4 -8 -2 -9 -13 -54 -44
-64 -44 -5 0 -8 6 -8 14 0 12 27 38 84 79 19 14 19 15 -2 26 -18 10 -23 9 -28
-4 -8 -20 -41 -11 -72 21 -34 35 -66 40 -107 15 -45 -26 -59 -27 -46 -2 13 23
4 33 -20 21 -32 -17 -28 4 7 39 18 19 32 37 29 39 -6 6 -95 -51 -95 -61 0 -5
-4 -5 -10 -2 -5 3 -10 1 -10 -6 0 -7 -3 -10 -6 -6 -4 3 -20 -1 -36 -9 -25 -13
-22 -8 19 34 26 27 51 47 54 46 9 -5 30 45 21 49 -14 8 -61 0 -76 -12 -8 -7
-12 -19 -9 -27 3 -8 1 -14 -5 -14 -5 0 -22 -10 -38 -22 -54 -43 -52 -25 7 49
32 41 59 81 59 89 0 9 5 12 12 8 7 -4 8 -3 4 5 -4 6 -12 9 -17 6 -5 -4 -9 -2
-9 4 0 5 -18 0 -40 -11 -24 -13 -39 -28 -38 -37 2 -11 -3 -15 -16 -13 -10 2
-15 -1 -12 -7 6 -10 -53 -45 -62 -36 -3 3 12 21 34 40 21 19 35 35 30 35 -5 0
4 11 20 25 17 15 37 24 48 21 23 -6 56 10 56 27 0 7 -4 6 -10 -3 -6 -9 -10
-11 -10 -3 0 7 -7 10 -15 7 -8 -4 -15 -1 -15 6 0 6 -4 9 -8 6 -5 -3 -9 1 -9 9
0 8 7 15 14 15 8 0 11 5 8 10 -3 6 -2 10 3 10 5 0 12 9 15 20 8 30 -2 25 -55
-27 -35 -34 -48 -42 -48 -30 0 10 9 28 21 40 30 32 82 108 77 113 -3 2 -11 -7
-18 -21 -7 -14 -17 -25 -21 -25 -10 0 12 52 26 62 6 5 6 8 -1 8 -7 0 -24 -16
-40 -35 -15 -20 -34 -33 -41 -31 -7 3 -13 1 -13 -5 0 -6 -5 -7 -10 -4 -6 4 -8
11 -5 16 12 18 -11 9 -37 -16 -15 -14 -31 -25 -37 -25 -5 0 -12 -5 -14 -10 -3
-6 -4 -5 -3 2 1 7 17 22 34 33 17 11 31 28 32 38 0 9 6 17 14 17 8 0 16 6 19
14 4 9 0 12 -12 9 -21 -5 -27 35 -5 44 8 3 14 14 14 25 0 18 -2 17 -33 -6 -19
-15 -39 -26 -45 -26 -6 0 -12 -6 -15 -12 -2 -7 -4 -1 -4 15 0 15 3 27 6 27 4
0 23 14 42 31 19 18 26 29 17 26 -24 -9 -22 0 8 36 26 31 18 51 -11 27 -8 -7
-30 -13 -50 -15 -35 -3 -36 -3 -31 27 4 28 3 29 -21 23 l-25 -6 31 37 c17 21
28 40 25 43 -2 3 -11 -5 -19 -16 -26 -36 -93 -103 -104 -103 -21 0 -11 20 32
60 23 22 34 37 25 34 -10 -3 -18 -9 -18 -13 0 -4 -16 -15 -35 -24 -41 -20 -44
-10 -14 39 11 19 17 34 12 34 -4 0 5 9 21 19 28 19 28 19 6 26 -12 4 -27 2
-33 -4 -15 -15 -40 -14 -31 1 5 7 3 8 -5 4 -7 -5 -10 -15 -7 -23 5 -11 2 -13
-9 -9 -10 3 -27 -5 -43 -20 -47 -44 -59 -47 -59 -13 0 16 4 25 7 18 5 -8 9 -8
14 0 4 6 -4 13 -18 17 -18 4 -34 -1 -60 -21 -19 -14 -37 -22 -40 -17 -6 11 35
49 58 54 10 1 26 18 38 36 l20 33 -28 -13 c-16 -6 -35 -17 -43 -24 -12 -11
-17 -9 -26 9 -8 15 -8 26 -2 35 5 7 7 15 3 19 -3 4 8 23 26 42 l33 35 -50 -39
c-27 -22 -44 -32 -38 -24 7 9 11 18 8 21 -3 2 6 15 20 28 14 13 25 27 25 32 0
7 -44 -40 -68 -72 -2 -3 -9 3 -16 12 -11 15 -16 15 -32 4 -10 -7 -28 -16 -38
-20 -16 -5 -17 -4 -6 9 7 8 8 15 2 15 -5 0 -15 -7 -22 -15 -7 -9 -30 -29 -51
-46 l-39 -30 16 38 c9 21 21 44 28 52 8 12 8 13 -1 7 -18 -10 -16 0 4 32 17
27 17 27 -3 10 -11 -10 -26 -18 -32 -18 -7 0 -12 -4 -12 -8 0 -8 -59 -46 -73
-47 -4 0 -18 -13 -32 -29 -14 -16 -27 -27 -30 -25 -2 3 9 20 25 38 17 18 30
36 30 42 0 5 8 9 18 9 14 0 15 2 2 10 -10 7 -12 12 -4 18 6 4 14 27 18 51 l7
44 -43 -43 c-24 -23 -59 -54 -78 -69 -19 -14 -37 -28 -40 -31 -22 -22 -91 -70
-84 -58 39 65 103 137 133 148 35 13 71 43 71 61 0 6 -13 1 -29 -10 -21 -16
-31 -18 -34 -9 -3 10 -8 9 -18 -3 -8 -9 -24 -19 -37 -22 -19 -4 -22 -2 -18 11
5 15 4 15 -8 0 -18 -25 -27 -22 -21 5 2 12 8 34 11 50 6 25 4 27 -24 27 -18 0
-44 -11 -64 -27 -18 -15 -27 -20 -20 -11 12 15 11 17 -6 15 -10 0 -19 -6 -19
-13 0 -12 -136 -174 -141 -169 -3 3 27 54 38 65 3 3 11 17 19 33 8 15 18 27
23 27 4 0 8 6 8 14 0 8 7 17 16 20 10 4 14 13 10 28 -3 13 -3 18 0 11 3 -7 18
2 38 25 53 61 76 94 71 103 -9 14 -33 -1 -39 -24 -3 -12 -20 -38 -37 -57 -25
-28 -28 -30 -15 -7 9 15 13 27 9 27 -5 0 -1 5 7 10 12 8 11 10 -6 10 -12 0
-28 -8 -35 -17 -13 -16 -12 -17 4 -4 27 22 19 -1 -14 -39 -25 -27 -28 -29 -15
-8 21 35 20 44 -1 27 -10 -8 -6 3 10 23 15 20 27 41 27 47 0 6 5 11 10 11 6 0
10 9 10 20 0 29 -9 25 -61 -29 -40 -42 -49 -47 -54 -32 -3 10 -2 27 1 37 6 18
5 17 -9 -1 -9 -11 -17 -25 -17 -30 0 -6 -9 -16 -20 -23 -11 -7 -20 -16 -20
-22 0 -13 -78 -96 -84 -89 -3 3 12 31 34 62 36 52 50 68 97 119 9 10 20 15 26
11 6 -4 7 -1 3 6 -5 7 -1 20 7 29 28 33 38 73 22 84 -6 5 -6 8 3 8 19 0 52 38
52 60 0 11 -4 20 -10 20 -5 0 -10 -4 -10 -8 0 -5 -25 -34 -55 -65 -30 -31 -55
-59 -55 -62 0 -4 16 3 35 15 39 24 43 23 18 -8 -10 -11 -25 -30 -33 -42 -23
-35 -111 -130 -120 -130 -5 0 -6 9 -3 20 3 11 9 20 14 20 5 0 9 4 9 10 0 5 16
32 35 59 35 49 44 67 25 56 -18 -11 -11 8 13 34 l22 24 -27 -19 c-15 -10 -28
-22 -28 -26 0 -5 -5 -8 -10 -8 -7 0 -7 6 0 20 6 11 8 20 4 20 -3 0 -2 6 3 13
11 14 24 47 19 47 -2 0 -32 -48 -66 -107 -35 -60 -67 -109 -71 -111 -5 -2 -9
-9 -9 -15 0 -7 -13 -27 -29 -46 -17 -19 -28 -37 -27 -40 2 -3 -9 -16 -25 -29
l-28 -23 3 23 c5 42 43 106 133 223 11 15 14 35 6 35 -13 0 -29 -14 -41 -35
-11 -19 -11 -19 -12 5 0 24 -1 24 -21 -7 -12 -18 -22 -33 -23 -33 -7 0 -3 41
5 45 5 4 5 13 -1 25 -8 15 -4 29 20 66 16 27 30 53 30 59 0 24 -59 57 -107 60
-28 1 -11 20 21 23 31 3 34 6 39 40 2 20 4 38 3 39 -1 1 -23 -4 -50 -10 -45
-10 -49 -9 -66 13 -14 19 -16 29 -7 47 5 13 16 23 23 23 15 0 21 17 29 80 3
25 8 52 10 60 2 8 7 35 10 60 4 24 8 47 11 51 2 3 6 25 9 49 3 23 8 46 11 51
3 5 8 29 11 54 4 40 3 45 -14 45 -22 0 -43 18 -43 38 0 12 4 12 24 -2 15 -10
27 -12 31 -6 3 5 -18 20 -47 33 l-53 24 38 7 c21 4 44 3 50 -2 7 -5 22 -12 34
-15 20 -4 21 -3 13 14 -6 10 -23 22 -38 25 -36 9 -61 31 -57 52 2 9 4 20 4 25
1 4 15 7 31 7 25 0 30 4 30 24 0 15 13 34 36 52 21 16 48 40 60 54 24 24 24
24 24 3 0 -12 -6 -24 -12 -26 -10 -4 -10 -6 0 -6 8 -1 16 8 19 19 3 11 12 20
21 20 13 0 12 -4 -5 -22 -11 -13 -24 -34 -28 -48 -5 -19 -4 -21 4 -10 6 8 11
11 11 7 0 -5 16 1 35 13 l35 22 -5 -36 c-5 -27 -1 -40 15 -56 11 -11 22 -34
23 -51 2 -26 3 -27 15 -12 11 15 12 14 12 -7 0 -13 -10 -34 -22 -47 -12 -13
-16 -23 -10 -23 7 0 12 -7 12 -16 0 -14 2 -15 18 -3 16 13 16 12 2 -6 -48 -64
-30 -59 34 10 42 44 80 80 86 80 6 0 15 7 20 15 5 8 12 11 16 8 4 -4 -8 -21
-26 -38 -40 -37 -36 -66 7 -49 15 5 33 15 39 20 9 7 16 5 23 -8 8 -14 10 -15
11 -3 0 8 9 21 21 28 19 12 20 11 15 -6 -4 -11 -1 -26 7 -34 20 -20 25 -40 15
-66 -11 -30 -1 -47 18 -31 9 7 14 8 14 1 0 -6 -4 -13 -9 -17 -9 -5 -55 -69
-75 -105 -5 -8 6 -1 24 15 32 29 32 28 -5 -17 -21 -26 -41 -45 -44 -42 -3 3 1
9 9 14 13 8 12 10 -2 10 -19 0 -22 -8 -12 -34 5 -13 12 -12 50 10 25 15 47 24
50 21 3 -3 19 8 36 25 36 37 43 32 23 -16 -15 -36 -15 -37 5 -26 11 6 20 7 20
3 0 -4 5 -2 12 5 7 7 20 12 30 12 10 0 18 5 18 10 0 6 5 10 10 10 6 0 4 -14
-5 -31 -16 -31 -16 -31 7 -24 13 4 29 10 36 12 19 8 14 -11 -9 -36 -20 -22
-20 -23 -3 -36 12 -9 14 -14 6 -15 -7 0 -10 -5 -7 -11 5 -7 15 -5 31 5 28 19
40 21 26 3 -6 -7 -8 -18 -3 -25 5 -9 17 -6 45 9 21 11 41 18 44 15 3 -3 0 -6
-6 -6 -6 0 -18 -23 -26 -51 -15 -50 -14 -75 4 -64 15 9 20 -29 10 -65 -5 -18
-8 -35 -6 -37 7 -7 53 19 100 56 27 22 58 42 68 44 16 5 18 1 14 -25 -3 -17
-10 -34 -16 -38 -7 -4 -6 -17 4 -41 13 -32 31 -126 28 -141 -2 -8 2 -9 31 -12
6 0 23 7 37 17 13 9 20 17 14 17 -5 0 -15 -5 -22 -12 -6 -6 -19 -13 -28 -14
-12 -2 -10 3 7 19 25 23 49 31 49 16 0 -6 6 -7 13 -4 6 4 -10 -14 -38 -39 -56
-52 -53 -62 5 -16 41 33 63 39 53 15 -3 -9 -8 -13 -11 -11 -6 6 -32 -40 -32
-56 0 -6 15 6 34 27 19 20 45 42 58 49 23 12 23 11 20 -21 -3 -25 1 -37 19
-52 13 -11 29 -16 34 -12 16 12 37 7 48 -10 7 -11 3 -28 -12 -59 -11 -24 -21
-45 -21 -46 0 -2 14 1 30 6 34 10 36 8 14 -14 -14 -15 -14 -16 2 -16 14 0 16
-7 11 -40 -6 -48 3 -56 33 -30 35 30 37 24 4 -11 -24 -26 -25 -30 -7 -20 12 6
25 16 28 21 4 6 11 8 16 5 5 -4 9 -1 9 4 0 6 5 11 11 11 6 0 8 -9 4 -20 -4
-14 2 -27 21 -45 l27 -25 -31 -33 -31 -32 32 -3 c71 -6 104 -5 151 2 27 4 52
9 56 11 4 2 17 6 31 9 29 5 184 43 217 52 14 4 19 10 13 13 -6 4 8 21 35 39
25 18 42 37 39 42 -4 6 -11 7 -17 4 -6 -4 -8 -2 -4 4 3 6 -2 15 -11 21 -15 9
-16 12 -4 20 7 5 10 14 6 21 -4 6 1 43 11 81 19 72 15 92 -11 65 -21 -21 -42
-22 -25 -1 15 18 -1 20 -18 3 -8 -8 -14 -5 -22 16 -14 37 -14 37 19 74 17 17
26 32 22 32 -5 0 -14 -7 -21 -15 -7 -9 -19 -14 -27 -11 -7 3 -13 1 -13 -4 0
-6 -4 -10 -10 -10 -5 0 -10 4 -10 9 0 13 62 71 76 71 6 0 14 6 17 14 8 21 -23
29 -43 11 -15 -14 -21 -12 -62 22 l-46 37 39 28 c37 27 45 56 12 44 -10 -4
-13 -2 -10 8 3 8 1 17 -6 20 -8 3 -9 7 -2 13 6 4 11 27 12 51 1 51 14 68 55
77 21 5 26 10 18 15 -9 6 -1 16 28 34 51 32 60 46 34 53 -24 6 -38 33 -22 43
6 4 8 14 4 23 -3 9 1 40 9 69 8 29 15 61 14 70 0 15 -3 15 -29 2 -15 -8 -28
-10 -28 -5 0 5 6 12 13 14 7 4 8 6 1 6 -12 1 -31 -18 -34 -34 -6 -25 -13 -34
-22 -29 -7 4 -6 9 1 14 14 8 16 33 8 73 -5 22 0 35 18 53 31 31 32 39 2 19
-13 -8 -27 -12 -32 -8 -4 5 -6 3 -2 -2 3 -6 -3 -11 -13 -11 -18 0 -18 2 3 26
12 14 25 26 30 28 4 2 15 11 24 20 9 10 18 16 20 15 2 -2 3 -1 3 2 0 3 0 9 0
13 0 14 -34 10 -46 -6 -8 -11 -17 -8 -53 22 -24 20 -46 36 -49 37 -42 5 -54 4
-64 -8 -6 -8 -20 -19 -30 -24 -17 -9 -19 -7 -18 13 3 37 1 39 -21 28 -29 -16
-32 -8 -6 21 12 13 29 33 37 43 14 18 14 19 -10 6 -14 -7 -41 -26 -60 -42 -19
-15 -42 -28 -50 -28 -9 0 -21 -5 -28 -12 -7 -7 -12 -8 -12 -2 0 5 19 28 43 50
57 55 70 71 62 84 -4 7 -12 7 -25 0 -13 -7 -21 -7 -25 0 -3 5 -11 10 -16 10
-6 0 -7 -5 -4 -10 3 -6 0 -13 -8 -16 -8 -3 -13 -13 -11 -22 3 -11 -10 -27 -33
-44 -54 -41 -72 -36 -37 10 15 20 30 39 34 42 3 3 17 22 33 42 28 38 34 63 17
73 -12 7 -62 -18 -81 -41 -9 -11 -9 -15 -1 -10 6 4 12 3 12 -2 0 -8 -53 -37
-56 -30 -1 1 -11 -5 -22 -15 -20 -18 -20 -18 -16 0 3 10 19 26 35 36 17 9 28
21 25 25 -11 18 43 55 78 54 22 -1 36 4 40 13 4 12 0 14 -18 11 -16 -3 -27 1
-30 11 -10 24 -7 35 7 27 6 -4 9 -3 4 1 -4 5 0 17 10 27 9 10 13 18 9 18 -4 0
-1 10 5 23 7 12 -14 -5 -46 -37 -65 -65 -87 -60 -33 7 19 23 38 49 43 57 8 13
7 13 -8 1 -21 -17 -22 -7 -1 25 9 13 14 27 11 30 -7 7 -47 -32 -47 -46 0 -5
-3 -10 -7 -11 -29 -3 -47 -10 -64 -25 -10 -9 -19 -14 -19 -11 0 3 10 15 22 27
15 14 17 20 7 20 -8 0 -28 -14 -46 -30 -18 -17 -36 -30 -40 -30 -7 0 27 38 85
92 12 12 22 26 22 32 0 6 -4 5 -9 -3 -8 -12 -12 -13 -26 -1 -14 12 -13 16 10
40 19 20 23 30 15 35 -8 5 -16 1 -22 -9 -5 -9 -14 -16 -20 -16 -7 0 -22 -10
-35 -22 -19 -17 -23 -18 -23 -6 0 9 6 19 13 21 9 4 9 6 -1 6 -17 1 -1 18 41
45 15 10 27 23 27 30 0 7 -3 7 -8 1 -4 -5 -13 -11 -21 -13 -15 -3 -9 7 32 52
9 11 17 23 17 28 0 8 -35 -3 -71 -22 -14 -8 -19 -7 -19 1 0 8 -5 8 -16 -2 -13
-11 -15 -9 -12 17 2 23 -1 29 -14 28 -23 -2 -23 7 2 34 12 12 17 22 13 22 -4
0 -1 5 7 10 8 5 10 10 4 10 -7 0 -27 -20 -45 -44 -36 -47 -89 -86 -89 -66 0 7
16 27 35 46 45 43 44 50 -1 19 -45 -31 -57 -31 -49 -2 11 35 37 87 44 87 3 0
17 10 31 21 21 17 22 19 3 10 -12 -6 -23 -7 -25 -2 -2 5 -14 4 -28 -2 -27 -11
-36 -13 -63 -15 -10 -1 -16 -6 -13 -11 7 -10 -73 -65 -82 -57 -3 3 3 16 14 28
17 19 17 21 2 15 -11 -4 -17 -2 -15 5 1 6 -3 12 -9 14 -9 4 -22 -5 -72 -46 -7
-6 -17 -8 -23 -4 -11 6 47 63 65 64 10 0 30 24 47 55 9 16 9 18 -2 8 -7 -7
-22 -13 -32 -13 -15 0 -9 10 26 43 25 24 51 55 56 71 12 30 14 62 3 34 -8 -19
-77 -103 -111 -136 -16 -15 -19 -21 -8 -16 23 9 21 -8 -3 -23 -16 -11 -18 -10
-14 1 3 8 0 17 -6 21 -8 5 -8 11 1 21 6 8 9 17 6 20 -3 4 6 23 21 43 l26 36
-29 -25 c-17 -14 -33 -29 -37 -35 -4 -5 -10 -6 -14 -3 -3 4 8 26 26 50 l33 43
-37 -37 c-40 -40 -52 -45 -58 -27 -3 8 -14 6 -36 -5 -36 -19 -41 -13 -14 18
l17 21 -25 -20 c-14 -11 -43 -37 -65 -58 -44 -41 -55 -36 -29 14 12 24 13 34
5 37 -8 3 -5 13 11 29 20 22 21 23 3 17 -11 -4 -42 -25 -70 -48 -27 -22 -46
-35 -41 -28 17 27 -7 8 -67 -54 -36 -36 -67 -62 -71 -56 -3 5 3 17 14 27 11
10 20 15 20 10 0 -9 57 52 78 83 12 18 17 20 31 10 13 -10 14 -10 4 2 -15 17
-17 44 -3 35 6 -3 7 1 4 9 -3 9 -1 16 5 16 6 0 8 6 5 13 -3 8 0 26 6 42 10 27
10 27 -32 -11 -86 -77 -225 -184 -212 -162 38 66 102 132 151 154 17 9 39 26
47 40 l16 23 -37 -21 -38 -22 19 22 c11 12 17 25 13 28 -3 3 -19 -9 -36 -28
-29 -33 -61 -46 -61 -24 0 6 -5 5 -12 -2 -19 -19 -27 -14 -22 16 11 65 11 67
-19 65 -15 -1 -40 -11 -56 -23 -21 -15 -32 -17 -37 -9 -4 7 -3 9 3 6 6 -4 23
10 39 30 15 20 22 33 16 29 -7 -4 -12 -2 -12 3 0 6 6 11 13 11 7 0 13 9 14 20
2 30 -13 24 -27 -10 -7 -16 -17 -30 -22 -30 -5 0 -8 -8 -6 -17 2 -10 -2 -17
-9 -16 -6 1 -16 -10 -21 -25 -12 -32 -88 -119 -97 -110 -7 7 18 50 47 82 17
19 22 31 19 49 -1 5 2 6 7 3 12 -7 110 116 105 131 -5 13 -33 6 -33 -8 0 -14
-62 -110 -68 -105 -2 3 2 16 10 28 23 37 27 55 12 55 -7 0 -11 -4 -8 -8 6 -10
-25 -59 -37 -59 -5 0 -2 12 8 28 l17 27 -24 -20 -24 -20 20 30 c31 47 48 84
41 91 -5 5 -110 -99 -167 -165 -30 -36 -24 -17 13 42 49 77 49 77 38 77 -6 0
-17 -13 -26 -29 -8 -16 -21 -35 -28 -43 -7 -7 -21 -25 -31 -40 -10 -16 -25
-28 -33 -28 -8 0 -11 -5 -8 -10 4 -6 1 -9 -7 -8 -7 2 -12 -3 -10 -9 1 -7 -5
-13 -13 -13 -22 0 -19 7 33 68 26 31 52 63 57 70 6 7 24 28 40 47 53 60 65 75
57 75 -4 0 -2 4 5 8 6 4 14 20 17 36 3 16 14 39 26 51 11 12 20 32 20 44 0 20
-10 13 -65 -44 -36 -36 -65 -63 -65 -60 0 4 -7 2 -15 -5 -25 -21 -19 9 7 31
11 11 17 19 13 19 -5 0 -19 -10 -32 -22 -31 -29 -35 -20 -13 30 11 23 17 42
15 42 -2 0 -30 -44 -61 -97 -31 -54 -62 -101 -68 -105 -6 -4 -7 -8 -3 -8 4 0
-3 -15 -17 -33 -15 -19 -26 -37 -26 -40 0 -9 -25 -40 -72 -90 -21 -22 -38 -34
-38 -28 0 19 62 144 80 161 3 3 23 30 45 60 22 30 43 56 47 58 4 2 4 10 1 19
-4 10 -2 14 4 10 7 -5 9 1 5 15 -5 19 -7 20 -10 6 -2 -10 -9 -18 -17 -18 -7 0
-16 -12 -20 -27 -6 -22 -9 -25 -14 -11 -4 13 -10 15 -21 8 -8 -5 -11 -10 -7
-10 5 0 -9 -21 -30 -47 -48 -60 -63 -76 -64 -69 -5 23 -4 33 5 45 8 11 8 13
-1 7 -8 -4 -13 -2 -14 6 -1 7 -2 27 -4 43 -1 17 2 36 7 43 7 8 7 12 0 12 -5 0
-8 9 -5 20 3 11 9 18 13 15 4 -3 14 3 21 13 13 15 12 16 -3 4 -25 -20 -31 2
-8 31 11 14 20 30 20 35 0 6 6 17 13 24 21 23 52 63 43 56 -5 -4 -17 -3 -28 3
-10 5 -39 12 -65 15 -26 2 -48 6 -49 7 -2 1 17 16 41 32 44 30 58 55 30 55 -8
0 -17 12 -20 28 -9 39 -20 57 -40 60 -10 3 -15 0 -11 -7z m396 -427 c-55 -73
-128 -149 -136 -141 -7 7 98 167 106 162 4 -2 19 7 36 20 16 13 31 21 33 19 2
-2 -15 -29 -39 -60z m-1155 15 c-5 10 -4 12 3 7 17 -10 15 -33 -4 -40 -8 -3
-12 -2 -9 4 3 6 1 10 -4 10 -6 0 -11 7 -11 16 0 14 2 15 17 3 14 -12 16 -12 8
0z m-50 -108 c-4 -3 -11 2 -16 12 -12 21 -31 23 -22 1 3 -9 14 -19 25 -23 17
-6 17 -8 2 -26 -12 -16 -14 -16 -10 -3 2 9 -2 22 -10 29 -14 12 -54 90 -54
106 0 4 20 -14 45 -41 25 -27 43 -51 40 -55z m-40 -49 c3 -8 12 -11 20 -8 22
8 55 -27 39 -42 -9 -8 -15 -8 -23 2 -6 7 -8 15 -5 19 8 8 -18 3 -33 -6 -7 -4
-15 4 -21 21 -8 22 -7 29 4 29 7 0 16 -7 19 -15z m80 -20 c-19 -4 -37 16 -28
31 3 4 14 0 25 -10 18 -16 19 -18 3 -21z m-51 -38 c4 -9 4 -19 2 -21 -8 -8
-26 8 -26 23 0 19 16 18 24 -2z m16 -66 c0 -6 -6 -5 -15 2 -8 7 -15 14 -15 16
0 2 7 1 15 -2 8 -4 15 -11 15 -16z m864 -50 c-10 -13 -20 -25 -21 -27 -2 -2
-3 1 -3 7 0 11 27 42 37 42 3 0 -2 -10 -13 -22z m-994 -104 c0 -8 -5 -12 -10
-9 -6 4 -8 11 -5 16 9 14 15 11 15 -7z m25 -54 c-6 -9 -9 -9 -16 1 -10 17 0
34 13 21 6 -6 7 -16 3 -22z m33 -21 c-2 -2 12 -24 30 -47 31 -38 32 -47 8 -43
-5 1 -6 -6 -2 -16 5 -16 4 -15 -9 1 -17 22 -20 40 -5 31 6 -3 10 -1 10 4 0 6
-4 11 -10 11 -5 0 -10 7 -10 15 0 8 -5 15 -11 15 -6 0 -9 -7 -5 -15 10 -26 -3
-16 -19 14 -11 23 -12 31 -2 34 14 6 30 4 25 -4z m-119 -202 c6 -15 6 -29 1
-32 -7 -4 -70 104 -70 121 0 12 60 -65 69 -89z m1631 87 c0 -2 -9 -8 -20 -14
-15 -8 -18 -8 -14 3 4 11 34 21 34 11z m-2575 -92 c-5 -6 -65 57 -65 68 0 5
15 -7 34 -28 19 -20 33 -39 31 -40z m1072 -2 c15 -22 15 -23 1 -12 -14 11 -17
10 -20 -5 -3 -14 -10 -9 -29 22 -42 67 -43 79 -3 48 19 -16 42 -39 51 -53z
m-299 3 c12 -19 20 -38 17 -41 -7 -8 -19 6 -44 50 -25 46 -4 39 27 -9z m-538
-8 c11 -13 10 -14 -4 -9 -9 3 -16 10 -16 15 0 13 6 11 20 -6z m3219 -197 c-48
-45 -57 -48 -34 -10 33 51 58 73 67 60 5 -9 -6 -26 -33 -50z m-1448 -171 c-13
-13 -15 1 -4 30 7 17 8 17 11 -1 2 -10 -1 -23 -7 -29z m-1062 -52 c24 -37 37
-51 43 -42 5 9 8 7 8 -5 0 -9 4 -18 8 -20 14 -5 83 -129 77 -137 -6 -11 63
-73 74 -67 12 8 81 -13 81 -24 0 -6 -8 -10 -17 -10 -10 0 1 -9 25 -20 23 -10
42 -24 42 -30 0 -5 -3 -9 -7 -8 -5 1 -32 -1 -61 -5 -40 -6 -56 -4 -67 7 -8 8
-15 19 -15 24 0 5 -9 17 -20 27 -11 10 -20 24 -20 31 0 7 -3 14 -7 16 -18 8
-105 152 -97 162 2 3 1 4 -2 1 -8 -6 -88 113 -96 142 -10 36 14 17 51 -42z
m-349 -56 c0 -18 -6 -13 -31 27 -17 27 -35 51 -40 52 -5 2 -9 10 -9 18 0 7 18
-6 40 -30 23 -25 40 -53 40 -67z m574 65 c9 -23 7 -36 -3 -30 -12 8 -21 46
-11 46 4 0 11 -7 14 -16z m970 -2 c6 -10 -64 -86 -82 -90 -16 -3 -9 11 32 62
30 36 41 43 50 28z m-1002 -46 c25 2 27 0 18 -16 -16 -30 -12 -58 12 -80 32
-30 32 -50 -1 -50 -24 0 -33 10 -69 73 -50 88 -53 103 -14 83 15 -7 39 -12 54
-10z m1200 -13 c-6 -10 -21 -27 -33 -38 -24 -20 -24 -20 -9 0 8 11 21 26 28
33 6 7 12 18 12 24 0 6 3 9 6 6 3 -4 1 -15 -4 -25z m-1752 -47 c0 -12 -5 -7
-19 24 -11 24 -11 24 3 6 9 -11 16 -24 16 -30z m437 -193 c23 -42 40 -62 49
-59 18 7 27 -11 26 -48 -1 -21 8 -42 23 -60 14 -16 25 -33 25 -37 0 -10 -20
-22 -26 -16 -12 12 -52 136 -46 143 4 4 1 4 -6 0 -12 -7 -10 -45 3 -66 3 -5 2
-10 -3 -10 -14 0 -112 204 -112 232 0 21 32 -17 67 -79z m1063 62 c-8 -10 -9
-15 -2 -15 7 0 9 -7 5 -17 -4 -11 -8 -13 -11 -5 -2 7 -9 9 -14 6 -7 -5 -8 -2
-3 7 13 22 27 39 32 39 3 0 0 -7 -7 -15z m-960 -139 c-12 -12 -30 8 -30 33 0
11 5 10 20 -4 15 -13 17 -22 10 -29z m-292 -1 c-3 -3 -9 2 -12 12 -6 14 -5 15
5 6 7 -7 10 -15 7 -18z m-358 -112 c0 -7 5 -13 12 -13 6 0 9 -3 5 -6 -3 -4
-28 17 -55 45 -27 28 -46 54 -43 57 7 7 80 -68 81 -83z m95 -101 c-3 -3 -11 0
-18 7 -9 10 -8 11 6 5 10 -3 15 -9 12 -12z m-55 -322 c0 -5 -5 -10 -11 -10 -5
0 -7 5 -4 10 3 6 8 10 11 10 2 0 4 -4 4 -10z m-752 -64 c27 -28 30 -33 12 -29
-20 5 -69 63 -53 63 4 0 23 -16 41 -34z m1294 -268 c19 -18 32 -32 29 -30 -2
1 -12 -5 -21 -13 -15 -14 -19 -11 -43 25 -14 23 -22 38 -17 35 6 -3 10 -1 10
4 0 17 6 14 42 -21z m2408 -13 c-18 -19 -36 -32 -39 -29 -6 5 57 64 68 64 3 0
-10 -16 -29 -35z m540 -30 c0 -8 -7 -15 -16 -15 -14 0 -14 3 -4 15 7 8 14 15
16 15 2 0 4 -7 4 -15z m-2830 -71 c0 -8 -4 -12 -10 -9 -5 3 -10 10 -10 16 0 5
5 9 10 9 6 0 10 -7 10 -16z m-116 0 c9 -3 13 -10 10 -15 -8 -14 -21 -11 -28 6
-6 17 -4 18 18 9z m26 -135 c0 -7 10 -9 25 -7 19 4 23 2 15 -7 -19 -22 -49
-25 -60 -5 -13 25 -13 30 5 30 8 0 15 -5 15 -11z m77 -24 c0 -8 -4 -12 -9 -9
-4 3 -8 9 -8 15 0 5 4 9 8 9 5 0 9 -7 9 -15z m-57 -35 c0 -5 -2 -10 -4 -10 -3
0 -8 5 -11 10 -3 6 -1 10 4 10 6 0 11 -4 11 -10z m1170 -50 c-11 -16 -26 -33
-33 -37 -12 -7 0 11 32 50 23 28 24 20 1 -13z m1330 -14 c0 -2 -7 -7 -16 -10
-8 -3 -12 -2 -9 4 6 10 25 14 25 6z m-929 -259 c-7 -7 -14 -8 -21 -1 -6 6 -2
10 12 11 16 2 18 -1 9 -10z m-1795 -72 c10 -19 22 -35 26 -35 5 0 8 -5 8 -11
0 -6 9 -23 19 -38 11 -16 16 -32 12 -40 -10 -16 -20 -4 -65 87 -36 72 -36 104
0 37z m104 4 c0 -6 -4 -7 -10 -4 -5 3 -10 11 -10 16 0 6 5 7 10 4 6 -3 10 -11
10 -16z m1610 -17 c-20 -35 -60 -72 -60 -55 0 9 70 93 77 93 2 0 -5 -17 -17
-38z m-322 -17 c-6 -14 -13 -23 -15 -21 -5 5 15 46 22 46 3 0 -1 -11 -7 -25z
m-1472 -105 c5 1 10 -3 12 -9 2 -6 0 -11 -5 -11 -12 0 -33 22 -33 35 0 5 4 4
9 -3 4 -8 12 -13 17 -12z m-142 -155 c3 -8 1 -15 -3 -15 -5 0 -11 7 -15 15 -3
8 -1 15 3 15 5 0 11 -7 15 -15z m2836 3 c0 -12 -58 -68 -71 -68 -12 0 16 49
37 65 23 18 34 19 34 3z m25 -108 c-3 -5 -11 -10 -16 -10 -6 0 -7 5 -4 10 3 6
11 10 16 10 6 0 7 -4 4 -10z m-2594 -112 c66 -69 183 -248 160 -248 -14 0 -31
26 -23 35 4 5 0 6 -9 2 -10 -3 -24 3 -35 17 -21 25 -44 63 -44 71 0 4 6 3 13
-1 7 -4 9 -3 4 2 -5 5 -13 9 -18 9 -6 0 -18 14 -27 30 -9 17 -19 32 -22 35 -9
9 -60 89 -60 95 0 12 12 2 61 -47z m-370 12 c12 0 50 -81 43 -92 -7 -12 -24
-10 -24 2 0 6 -8 22 -17 36 -9 14 -17 40 -19 57 -1 18 0 24 3 15 2 -10 9 -18
14 -18z m1603 -15 c-9 -14 -18 -25 -21 -25 -5 0 5 18 20 38 17 22 18 13 1 -13z
m-1364 -20 c0 -7 3 -15 8 -17 4 -1 23 -34 42 -73 19 -38 41 -78 49 -87 8 -10
11 -18 6 -18 -4 0 -1 -10 7 -22 23 -37 29 -58 14 -58 -13 0 -103 162 -109 196
-1 10 -10 34 -20 53 -19 38 -22 55 -7 46 6 -3 10 -12 10 -20z m260 -16 c0 -6
-4 -7 -10 -4 -5 3 -10 11 -10 16 0 6 5 7 10 4 6 -3 10 -11 10 -16z m1027 -86
c-9 -9 -20 -13 -24 -9 -4 4 -1 11 7 16 25 16 35 11 17 -7z m253 4 c0 -2 -14
-16 -32 -33 l-31 -29 23 33 c20 27 40 42 40 29z m-1800 -11 c0 -2 -7 -7 -16
-10 -8 -3 -12 -2 -9 4 6 10 25 14 25 6z m615 -84 c-3 -3 -11 0 -18 7 -9 10 -8
11 6 5 10 -3 15 -9 12 -12z m-388 -173 c13 -23 18 -41 12 -50 -9 -16 -7 -18
-39 46 -13 28 -41 78 -62 113 -21 34 -38 65 -38 69 0 8 100 -132 127 -178z
m225 121 c7 -16 17 -30 22 -30 6 0 5 -5 -2 -12 -13 -13 -16 -29 -4 -27 22 4
32 -3 32 -21 0 -11 5 -20 11 -20 5 0 7 -4 4 -10 -14 -23 -37 -7 -56 38 -11 26
-24 55 -29 64 -13 22 -13 48 -1 48 5 0 15 -13 23 -30z m-112 -16 c0 -8 5 -14
11 -14 5 0 7 -4 4 -10 -9 -15 -22 -12 -28 8 -2 9 -8 26 -13 37 -7 18 -6 18 9
6 9 -7 17 -20 17 -27z m106 -105 c14 -28 23 -53 21 -56 -3 -2 -18 -5 -33 -6
-26 -2 -32 3 -52 47 -12 27 -20 52 -16 55 3 3 21 -12 41 -34 l34 -40 -20 35
c-23 39 -26 50 -11 50 5 0 21 -23 36 -51z m-149 -21 c-3 -8 -6 -5 -6 6 -1 11
2 17 5 13 3 -3 4 -12 1 -19z m-400 -56 c0 -7 -9 -4 -23 9 -13 12 -21 26 -18
31 7 11 41 -22 41 -40z m388 -12 c3 -5 1 -10 -4 -10 -6 0 -11 5 -11 10 0 6 2
10 4 10 3 0 8 -4 11 -10z m-1715 -60 c28 -28 25 -31 -10 -13 -17 8 -28 19 -25
24 9 13 12 12 35 -11z m4895 1 c-3 -6 -11 -11 -17 -11 -6 0 -6 6 2 15 14 17
26 13 15 -4z m-3430 -69 c-3 -3 -11 0 -18 7 -9 10 -8 11 6 5 10 -3 15 -9 12
-12z m-815 -384 c43 -45 27 -50 -18 -5 -20 20 -31 37 -24 37 6 0 25 -14 42
-32z m1480 -93 c21 -19 29 -8 8 13 -9 9 -4 10 20 3 18 -5 32 -7 32 -4 0 3 7 0
15 -7 8 -7 15 -19 15 -27 0 -12 -6 -13 -27 -8 -16 4 -38 7 -51 6 -24 -1 -72
25 -72 40 0 14 37 4 60 -16z m2584 10 c-27 -20 -51 -20 -34 0 7 8 22 15 33 15
20 0 20 0 1 -15z m-3729 -185 c3 -5 1 -12 -5 -15 -11 -7 -80 61 -80 78 0 9 75
-47 85 -63z m975 54 c0 -14 -3 -14 -15 -4 -8 7 -15 14 -15 16 0 2 7 4 15 4 8
0 15 -7 15 -16z m2160 -18 c0 -3 -4 -8 -10 -11 -5 -3 -10 -1 -10 4 0 6 5 11
10 11 6 0 10 -2 10 -4z m-2089 -67 c31 -33 31 -56 0 -39 -10 5 -20 8 -22 7 -2
-1 -3 0 -2 2 1 2 -7 12 -18 24 -10 11 -19 24 -19 29 0 19 34 6 61 -23z m-1743
-7 c6 -18 -15 -14 -22 4 -4 10 -1 14 6 12 6 -2 14 -10 16 -16z m1682 -25 c0
-5 -4 -5 -10 -2 -5 3 -10 14 -10 23 0 15 2 15 10 2 5 -8 10 -19 10 -23z m184
-36 c-6 -6 -24 19 -24 34 1 6 7 1 15 -9 8 -11 12 -22 9 -25z m-54 -32 c0 -5
-9 0 -20 11 -11 11 -20 26 -20 33 1 13 40 -30 40 -44z m140 0 c17 -17 28 -34
25 -37 -3 -4 -10 0 -15 8 -7 12 -12 12 -22 2 -20 -20 -29 -14 -22 14 5 19 4
25 -5 20 -6 -4 -16 -4 -22 0 -8 4 -7 9 2 15 21 13 25 12 59 -22z m1034 -4 c-4
-8 -10 -15 -15 -15 -5 0 -9 -5 -9 -11 0 -23 -146 -186 -158 -175 -7 8 100 166
109 160 4 -2 22 9 40 26 38 34 40 35 33 15z m-1254 -3 c0 -4 -10 -9 -22 -9
-18 -2 -20 0 -8 7 18 12 30 13 30 2z m20 -78 c0 -8 4 -13 9 -9 10 5 45 -55 37
-63 -3 -2 -13 4 -23 14 -27 27 -53 71 -46 78 9 9 23 -3 23 -20z m-68 -91 c-2
-7 4 -10 15 -7 19 5 54 -37 36 -43 -6 -2 -8 -16 -5 -31 5 -24 4 -26 -11 -13
-10 7 -17 20 -17 27 0 8 -4 14 -10 14 -5 0 -10 9 -10 19 0 11 -3 21 -7 23 -5
2 -16 21 -26 43 l-18 40 28 -30 c16 -16 27 -35 25 -42z m1178 -76 c0 -2 -9
-15 -21 -28 -12 -13 -27 -33 -35 -43 -7 -11 -17 -17 -20 -13 -12 11 15 59 36
64 11 3 20 9 20 14 0 5 5 9 10 9 6 0 10 -2 10 -3z m-200 -21 c0 -2 -6 -9 -13
-15 -10 -8 -14 -7 -14 4 0 8 6 15 14 15 7 0 13 -2 13 -4z m-981 -41 c11 -19
17 -35 12 -35 -6 0 -17 17 -39 63 -2 4 -1 7 1 7 3 0 14 -16 26 -35z m61 -26
c0 -5 -4 -9 -10 -9 -5 0 -10 7 -10 16 0 8 5 12 10 9 6 -3 10 -10 10 -16z
m1020 -39 c-12 -17 -26 -27 -32 -24 -7 5 -5 11 5 19 10 7 17 17 17 24 0 6 7
11 16 11 13 0 12 -5 -6 -30z m-1145 -30 c25 -55 15 -58 -11 -4 -12 24 -18 44
-14 44 4 0 15 -18 25 -40z m-77 -3 c25 -38 27 -47 9 -47 -7 0 -19 15 -27 33
-7 17 -15 35 -18 40 -2 4 0 7 5 7 4 0 18 -15 31 -33z m182 -13 c0 -8 -5 -12
-10 -9 -6 4 -8 11 -5 16 9 14 15 11 15 -7z m75 -14 c4 -6 11 -7 17 -4 7 4 8 2
4 -4 -8 -14 -56 -16 -56 -4 0 21 25 29 35 12z m-25 -40 c13 -8 13 -10 -2 -10
-9 0 -20 5 -23 10 -8 13 5 13 25 0z m45 -10 c3 -6 -1 -7 -9 -4 -18 7 -21 14
-7 14 6 0 13 -4 16 -10z m-114 -51 c7 -14 6 -17 -3 -14 -7 3 -18 17 -25 31
-10 22 -10 24 3 13 8 -7 19 -20 25 -30z m177 17 c-12 -7 -25 -11 -27 -9 -8 6
34 31 42 26 5 -3 -2 -11 -15 -17z m-70 -10 c-1 -1 -11 -7 -20 -14 -14 -11 -18
-10 -29 10 -11 21 -11 22 5 9 14 -12 16 -12 10 4 -6 15 -4 16 15 5 13 -6 21
-13 19 -14z m1444 -36 c-12 -10 -19 -20 -17 -24 3 -3 2 -4 -1 -2 -3 3 -18 -7
-31 -22 -36 -38 -25 -13 16 36 19 23 39 38 44 35 6 -4 1 -14 -11 -23z m-1734
-26 c-4 -3 -12 5 -18 18 -12 22 -12 22 6 6 10 -10 15 -20 12 -24z m1372 -24
c-6 -11 -16 -20 -22 -20 -6 0 -3 9 7 20 10 11 20 20 22 20 2 0 -1 -9 -7 -20z
m-1208 -17 c6 -16 11 -31 10 -35 -1 -5 7 -8 17 -8 10 0 21 -7 25 -15 3 -10 -1
-15 -14 -15 -20 0 -73 77 -64 92 9 13 14 9 26 -19z m152 -64 c-3 -5 -10 -7
-15 -3 -5 3 -7 10 -3 15 3 5 10 7 15 3 5 -3 7 -10 3 -15z m-146 -36 c20 -25
22 -26 17 -6 -5 18 -2 22 15 20 11 -1 20 -5 20 -10 0 -4 4 -6 9 -3 5 4 7 -3 4
-14 -3 -11 -10 -20 -17 -21 -6 0 -20 -2 -32 -4 -20 -4 -25 2 -52 58 -8 17 14
5 36 -20z m97 -23 c3 -5 -1 -10 -10 -10 -9 0 -13 5 -10 10 3 6 8 10 10 10 2 0
7 -4 10 -10z m-272 -123 c61 -62 107 -123 100 -131 -3 -3 -1 -6 5 -6 14 0 16
-29 3 -48 -6 -10 -13 -6 -26 15 -10 15 -18 33 -18 40 0 7 -7 13 -15 13 -9 0
-13 3 -9 6 3 3 -3 15 -14 27 -10 11 -19 27 -19 34 0 7 -4 13 -10 13 -5 0 -10
5 -10 11 0 6 -9 24 -21 40 -30 42 -14 36 34 -14z m247 -6 c0 -3 10 -7 23 -7
12 -1 33 -5 47 -9 14 -4 34 -8 45 -10 11 -2 22 -4 25 -4 3 -1 -3 -6 -12 -12
-10 -5 -18 -16 -18 -23 0 -16 -33 -14 -55 4 -14 12 -18 12 -26 -1 -8 -12 -12
-11 -22 5 -7 10 -22 33 -34 52 l-22 33 25 -11 c13 -6 24 -14 24 -17z m-588 -4
c3 4 4 3 2 -4 -1 -6 0 -14 4 -18 4 -4 7 -10 7 -13 1 -4 7 -18 14 -31 10 -18
10 -25 0 -35 -9 -8 -10 -8 -5 2 4 6 3 12 -3 12 -9 0 -21 26 -20 44 0 5 -3 12
-8 15 -4 3 -14 17 -22 31 -14 25 -14 25 7 7 11 -10 22 -15 24 -10z m502 -62
c3 -8 12 -15 20 -15 8 0 16 -4 18 -10 2 -5 14 -11 28 -14 14 -2 24 -9 23 -15
-2 -6 2 -11 9 -11 8 0 7 -5 -3 -15 -24 -25 -75 -1 -99 46 -11 21 -20 41 -20
44 0 11 18 4 24 -10z m-528 -104 c-9 -14 -26 -14 -26 0 0 5 5 7 10 4 13 -8 13
7 0 23 -5 7 -3 6 6 -2 9 -8 13 -19 10 -25z m807 22 c15 -3 27 -10 27 -15 0 -6
-7 -7 -16 -4 -8 3 -12 2 -9 -4 13 -22 -23 -8 -46 17 -21 23 -22 25 -4 19 11
-4 32 -10 48 -13z m-755 -18 c-3 -3 -9 2 -12 12 -6 14 -5 15 5 6 7 -7 10 -15
7 -18z m643 15 c5 0 9 -8 10 -17 0 -12 2 -14 6 -5 4 10 10 9 27 -7 11 -11 25
-20 31 -20 5 0 11 -5 13 -13 2 -9 0 -8 -7 2 -6 8 -11 12 -11 9 0 -4 -25 1 -56
10 -30 10 -55 21 -55 24 1 4 1 12 1 18 0 6 7 8 16 5 9 -3 20 -6 25 -6z m207
-56 c34 1 39 -1 27 -10 -9 -7 -30 -10 -48 -8 -18 1 -44 3 -59 3 -16 1 -28 5
-28 10 0 12 41 19 55 10 6 -3 29 -6 53 -5z m-1988 -42 l12 -27 -26 24 c-28 27
-34 43 -12 35 7 -3 19 -17 26 -32z m1620 16 c11 -12 20 -26 20 -30 0 -5 11
-21 24 -35 l24 -26 -1 27 c-1 14 -8 28 -14 31 -7 2 -13 11 -13 18 0 32 139
-14 160 -53 16 -30 6 -37 -52 -35 -29 2 -73 3 -97 4 -33 1 -42 4 -34 12 8 8 0
22 -28 51 -21 22 -39 44 -39 49 0 17 29 9 50 -13z m-92 -40 c6 -13 24 -45 40
-73 31 -53 52 -142 31 -129 -14 8 -89 166 -95 200 -6 30 9 31 24 2z m1392 -31
c0 -2 -10 -12 -22 -23 l-23 -19 19 23 c18 21 26 27 26 19z m-40 -50 c0 -2 -10
-12 -22 -23 l-23 -19 19 23 c18 21 26 27 26 19z m-1233 -39 c-3 -8 -6 -5 -6 6
-1 11 2 17 5 13 3 -3 4 -12 1 -19z m7 -47 c3 -5 -1 -14 -8 -21 -12 -9 -17 -7
-25 9 -17 31 -14 43 8 31 11 -5 22 -14 25 -19z m-669 -46 c24 -23 62 -81 59
-90 -2 -5 14 -34 36 -62 27 -36 35 -53 25 -53 -8 0 -15 4 -15 9 0 4 -20 39
-45 75 -25 37 -45 72 -45 77 0 5 -16 23 -35 40 -19 17 -35 36 -35 42 0 9 19
-4 55 -38z m898 -22 c7 1 11 -4 10 -10 -3 -11 16 -16 44 -12 3 0 10 -6 15 -15
7 -12 14 -14 28 -6 13 7 21 7 25 0 3 -5 1 -10 -5 -10 -6 0 -15 -12 -20 -26
-10 -25 -12 -26 -83 -20 -39 3 -85 7 -102 10 -16 3 -50 7 -74 10 -24 3 -45 7
-46 8 -1 2 -10 18 -19 36 -12 24 -13 32 -4 33 7 1 46 2 86 4 40 2 76 5 79 8 3
3 16 2 29 -4 14 -5 30 -8 37 -6z m-1118 -33 c3 -5 2 -10 -4 -10 -5 0 -13 5
-16 10 -3 6 -2 10 4 10 5 0 13 -4 16 -10z m346 -87 c13 -16 12 -17 -3 -4 -17
13 -22 21 -14 21 2 0 10 -8 17 -17z m1569 -62 c0 -5 -7 -11 -15 -15 -9 -3 -15
0 -15 9 0 8 7 15 15 15 8 0 15 -4 15 -9z m-2409 -298 c53 -49 92 -104 53 -73
-38 30 -123 120 -113 120 5 0 33 -21 60 -47z m2088 -27 c-2 -2 -15 -7 -29 -10
l-25 -7 25 20 c14 11 27 15 29 10 1 -6 1 -12 0 -13z m26 -16 c3 -5 1 -10 -4
-10 -6 0 -11 5 -11 10 0 6 2 10 4 10 3 0 8 -4 11 -10z m-349 -54 c19 -15 19
-15 -1 -11 -11 2 -22 4 -25 5 -3 1 -9 2 -13 1 -5 -1 -6 3 -2 9 8 14 18 13 41
-4z m-2098 -233 c34 -37 26 -37 -18 -2 -22 18 -40 34 -40 35 0 9 38 -13 58
-33z m426 -58 c24 -12 54 -61 44 -71 -4 -3 -19 8 -34 25 -20 24 -29 29 -35 19
-6 -9 -10 -7 -15 7 -4 11 -10 22 -14 25 -3 3 -13 17 -22 31 -26 40 -7 45 26 7
17 -18 39 -38 50 -43z m3376 -75 c-14 -10 -27 -17 -29 -15 -8 8 22 35 38 35
12 0 10 -5 -9 -20z m-1620 -84 c0 -10 -28 -7 -35 4 -11 18 5 31 21 16 8 -8 14
-17 14 -20z m156 10 c13 -10 16 -18 8 -25 -7 -8 -17 -4 -34 14 -26 28 -8 36
26 11z m173 -85 c22 -17 22 -49 0 -36 -5 4 -9 1 -9 -4 0 -6 -4 -11 -10 -11 -5
0 -10 10 -10 22 0 17 -3 19 -12 10 -18 -18 -19 -61 0 -71 25 -14 -2 -41 -36
-35 -38 7 -46 26 -17 42 30 15 32 22 5 15 -21 -6 -63 28 -43 34 6 2 22 14 35
26 30 28 66 31 97 8z m95 -166 c38 -39 -27 -62 -169 -61 -74 1 -80 2 -77 21 2
11 3 28 3 38 0 9 5 15 10 11 5 -3 15 -2 22 4 7 5 43 9 81 10 38 1 71 4 74 7 6
6 36 -11 56 -30z m1 -185 c-3 -5 -13 -6 -21 -3 -12 4 -13 8 -3 14 15 9 32 2
24 -11z"/>
<path d="M5000 4320 c0 -5 7 -10 15 -10 8 0 15 5 15 10 0 6 -7 10 -15 10 -8 0
-15 -4 -15 -10z"/>
<path d="M5754 1869 c-9 -15 -2 -18 20 -9 17 6 18 7 3 13 -9 3 -19 2 -23 -4z"/>
<path d="M5787 1856 c-17 -13 -17 -15 5 -30 43 -30 63 -16 31 23 -16 18 -20
19 -36 7z"/>
<path d="M5064 9881 c11 -11 23 -21 28 -21 14 0 -1 19 -25 31 -22 12 -22 12
-3 -10z"/>
<path d="M4947 9839 c12 -12 25 -20 28 -17 3 3 -7 13 -22 23 l-28 17 22 -23z"/>
<path d="M5180 9822 c0 -4 10 -13 23 -21 22 -14 22 -14 3 8 -20 22 -26 25 -26
13z"/>
<path d="M5334 9795 c3 -29 9 -41 21 -44 14 -2 16 1 11 15 -4 10 -1 21 6 26
10 6 10 8 -1 8 -8 0 -20 8 -27 18 -11 15 -13 12 -10 -23z"/>
<path d="M5082 9806 c7 -8 15 -12 17 -11 5 6 -10 25 -20 25 -5 0 -4 -6 3 -14z"/>
<path d="M5259 9803 c-13 -16 -12 -17 4 -4 9 7 17 15 17 17 0 8 -8 3 -21 -13z"/>
<path d="M5120 9769 c-27 -15 -30 -19 -15 -20 11 -1 25 -1 32 0 6 1 14 -3 18
-9 5 -8 11 -7 21 1 20 16 17 29 -7 29 -11 0 -17 5 -14 10 7 12 9 12 -35 -11z"/>
<path d="M5077 9713 c5 -12 3 -14 -7 -8 -10 6 -12 4 -7 -7 4 -12 1 -14 -14
-11 -10 3 -19 10 -19 15 0 5 -5 6 -10 3 -7 -4 -3 -14 10 -25 23 -20 60 -16 60
6 0 8 6 11 18 7 13 -5 12 -1 -5 16 -27 25 -35 27 -26 4z"/>
<path d="M5170 9715 c0 -2 10 -10 23 -16 20 -11 21 -11 8 4 -13 16 -31 23 -31
12z"/>
<path d="M5956 9631 c-4 -7 -5 -15 -2 -18 9 -9 19 4 14 18 -4 11 -6 11 -12 0z"/>
<path d="M5074 9608 c-4 -7 -3 -10 1 -5 5 4 24 -7 42 -25 18 -17 35 -29 38
-26 6 6 -54 68 -66 68 -4 0 -11 -6 -15 -12z"/>
<path d="M6385 9576 c-27 -30 -55 -70 -55 -77 0 -20 29 5 49 43 22 41 24 55 6
34z"/>
<path d="M6575 9281 c-3 -5 -1 -12 5 -16 5 -3 10 1 10 9 0 18 -6 21 -15 7z"/>
<path d="M7085 9169 c-4 -6 -5 -12 -2 -15 2 -3 7 2 10 11 7 17 1 20 -8 4z"/>
<path d="M7314 9008 l-19 -23 23 19 c21 18 27 26 19 26 -2 0 -12 -10 -23 -22z"/>
<path d="M7343 8990 c-11 -16 -10 -18 1 -14 15 6 30 34 18 34 -4 0 -13 -9 -19
-20z"/>
<path d="M7555 8580 c-3 -5 -1 -10 4 -10 6 0 11 5 11 10 0 6 -2 10 -4 10 -3 0
-8 -4 -11 -10z"/>
<path d="M7615 8319 c-4 -6 -5 -12 -2 -15 2 -3 7 2 10 11 7 17 1 20 -8 4z"/>
<path d="M4770 7974 c0 -9 41 -74 46 -74 2 0 -5 18 -16 40 -19 37 -30 49 -30
34z"/>
<path d="M4702 7942 c-9 -19 -9 -29 2 -44 12 -17 14 -17 20 -3 7 19 21 12 37
-17 8 -16 8 -19 -1 -13 -8 5 -11 3 -8 -6 3 -8 10 -13 16 -12 5 1 8 -7 5 -17
-3 -12 0 -20 6 -20 7 0 9 5 5 12 -5 8 -2 9 9 5 21 -8 23 15 4 35 -7 7 -29 34
-48 59 l-35 46 -12 -25z m27 -29 c-10 -11 -14 -11 -20 -1 -10 17 -2 28 17 21
11 -4 12 -8 3 -20z"/>
<path d="M4730 7886 c0 -9 5 -16 10 -16 6 0 10 4 10 9 0 6 -4 13 -10 16 -5 3
-10 -1 -10 -9z"/>
<path d="M4910 7891 c0 -17 50 -104 56 -98 5 4 -22 61 -43 92 -8 12 -13 14
-13 6z"/>
<path d="M4650 7761 c0 -6 4 -13 10 -16 6 -3 7 1 4 9 -7 18 -14 21 -14 7z"/>
<path d="M4478 7412 c9 -10 19 -17 21 -16 6 5 -20 34 -30 34 -5 0 -1 -8 9 -18z"/>
<path d="M4216 7209 c10 -11 28 -26 39 -32 19 -10 19 -9 5 9 -19 24 -43 43
-54 44 -5 0 -1 -9 10 -21z"/>
<path d="M4330 7121 c0 -11 29 -35 35 -29 2 2 -4 12 -15 21 -11 9 -20 13 -20
8z"/>
<path d="M6368 7051 c-24 -28 -38 -57 -31 -65 6 -6 12 1 48 57 20 31 8 37 -17
8z"/>
<path d="M6085 7040 c-3 -5 -1 -10 4 -10 6 0 11 5 11 10 0 6 -2 10 -4 10 -3 0
-8 -4 -11 -10z"/>
<path d="M2505 7020 c3 -5 11 -10 16 -10 6 0 7 5 4 10 -3 6 -11 10 -16 10 -6
0 -7 -4 -4 -10z"/>
<path d="M4470 6870 c27 -55 26 -54 33 -38 2 7 -9 29 -25 48 l-30 35 22 -45z"/>
<path d="M6416 6827 c-21 -29 -32 -46 -25 -39 19 17 29 15 23 -5 -5 -14 -4
-15 4 -4 6 8 8 20 5 28 -4 9 0 11 13 7 16 -5 16 -4 4 5 -12 9 -13 11 -1 11 8
0 11 3 8 7 -4 3 1 11 10 18 9 7 12 15 7 18 -6 3 -27 -18 -48 -46z"/>
<path d="M6612 6758 c-14 -14 -16 -28 -3 -28 9 0 24 30 18 36 -2 2 -9 -2 -15
-8z"/>
<path d="M7095 6625 c-16 -24 -33 -45 -36 -45 -14 0 -18 -30 -4 -30 18 0 77
86 73 105 -2 9 -15 -2 -33 -30z"/>
<path d="M2825 6540 c3 -5 11 -10 16 -10 6 0 7 5 4 10 -3 6 -11 10 -16 10 -6
0 -7 -4 -4 -10z"/>
<path d="M7006 6525 c-4 -13 -2 -14 14 -5 23 13 26 20 6 20 -8 0 -16 -7 -20
-15z"/>
<path d="M7346 6494 c-9 -9 -14 -19 -11 -22 3 -3 13 2 22 11 9 9 14 19 11 22
-3 3 -13 -2 -22 -11z"/>
<path d="M3276 5747 c3 -10 9 -15 12 -12 3 3 0 11 -7 18 -10 9 -11 8 -5 -6z"/>
<path d="M3320 5720 c6 -11 13 -20 16 -20 2 0 0 9 -6 20 -6 11 -13 20 -16 20
-2 0 0 -9 6 -20z"/>
<path d="M2950 5431 c0 -6 4 -13 10 -16 6 -3 7 1 4 9 -7 18 -14 21 -14 7z"/>
<path d="M4651 5284 c0 -11 3 -14 6 -6 3 7 2 16 -1 19 -3 4 -6 -2 -5 -13z"/>
<path d="M4949 5066 c26 -28 31 -31 31 -17 0 5 -12 17 -27 26 l-28 18 24 -27z"/>
<path d="M4490 4930 c0 -5 9 -14 20 -20 11 -6 20 -9 20 -8 0 2 -9 11 -20 21
-11 9 -20 13 -20 7z"/>
<path d="M4345 4677 c10 -15 20 -25 23 -22 3 3 -5 16 -17 28 l-23 22 17 -28z"/>
<path d="M4340 4641 c0 -5 7 -12 16 -15 14 -5 15 -4 4 9 -14 17 -20 19 -20 6z"/>
<path d="M7066 4635 c-11 -8 -15 -15 -9 -15 6 0 16 7 23 15 16 19 11 19 -14 0z"/>
<path d="M2406 4602 c-3 -5 1 -9 9 -9 8 0 12 4 9 9 -3 4 -7 8 -9 8 -2 0 -6 -4
-9 -8z"/>
<path d="M6361 4528 c-32 -43 -38 -58 -22 -58 9 0 41 50 54 83 10 27 1 20 -32
-25z"/>
<path d="M2488 4548 c6 -6 18 -8 28 -6 14 3 12 5 -9 10 -19 3 -25 2 -19 -4z"/>
<path d="M6201 4524 c-7 -8 -11 -17 -9 -20 3 -2 13 5 23 16 10 11 14 20 9 20
-5 -1 -15 -8 -23 -16z"/>
<path d="M6580 4244 c0 -8 5 -12 10 -9 6 4 8 11 5 16 -9 14 -15 11 -15 -7z"/>
<path d="M7009 4143 c-13 -16 -12 -17 4 -4 16 13 21 21 13 21 -2 0 -10 -8 -17
-17z"/>
<path d="M7104 4113 c-16 -21 -39 -49 -51 -63 -32 -34 -29 -45 6 -21 30 21 48
47 69 94 16 37 10 34 -24 -10z"/>
<path d="M6972 4097 c-25 -26 -28 -37 -10 -37 6 0 8 3 5 7 -4 3 3 17 15 30 12
13 19 23 16 23 -2 0 -14 -10 -26 -23z"/>
<path d="M6677 4083 c-4 -3 -7 -11 -7 -17 0 -6 5 -5 12 2 6 6 9 14 7 17 -3 3
-9 2 -12 -2z"/>
<path d="M2800 4070 c8 -5 24 -10 34 -10 26 0 18 6 -19 14 -22 5 -26 4 -15 -4z"/>
<path d="M7340 3975 c-7 -8 -8 -15 -2 -15 5 0 15 7 22 15 7 8 8 15 2 15 -5 0
-15 -7 -22 -15z"/>
<path d="M7166 3943 c-6 -14 -5 -15 5 -6 7 7 10 15 7 18 -3 3 -9 -2 -12 -12z"/>
<path d="M7292 3880 c-16 -25 -15 -31 2 -24 14 5 30 44 17 44 -3 0 -12 -9 -19
-20z"/>
<path d="M7550 3580 c0 -5 5 -10 11 -10 5 0 7 5 4 10 -3 6 -8 10 -11 10 -2 0
-4 -4 -4 -10z"/>
<path d="M4733 3130 c-1 -11 2 -18 7 -15 6 3 7 0 4 -8 -3 -8 2 -21 10 -30 9
-9 16 -20 16 -26 0 -5 4 -13 10 -16 6 -4 7 1 3 12 -6 16 -5 16 10 4 30 -24 21
10 -13 49 -16 19 -30 38 -30 43 0 17 -16 5 -17 -13z"/>
<path d="M4646 2987 c3 -10 9 -15 12 -12 3 3 0 11 -7 18 -10 9 -11 8 -5 -6z"/>
<path d="M4482 2636 c7 -8 15 -12 17 -11 5 6 -10 25 -20 25 -5 0 -4 -6 3 -14z"/>
<path d="M5095 2596 c17 -7 45 -27 63 -44 21 -19 39 -28 51 -25 37 10 32 38
-13 73 -11 8 -17 10 -13 3 12 -19 -34 -28 -48 -9 -7 9 -25 16 -41 16 l-29 -1
30 -13z"/>
<path d="M5080 2527 c0 -16 45 -36 60 -27 13 8 7 14 -34 29 -19 8 -26 7 -26
-2z"/>
<path d="M5156 2408 c3 -4 17 -8 31 -8 15 0 23 3 20 7 -10 9 -56 10 -51 1z"/>
<path d="M4350 2370 c0 -5 5 -10 11 -10 5 0 7 5 4 10 -3 6 -8 10 -11 10 -2 0
-4 -4 -4 -10z"/>
<path d="M4336 2336 c10 -8 21 -12 24 -10 5 6 -21 24 -34 24 -6 0 -1 -6 10
-14z"/>
<path d="M2406 2302 c-3 -5 1 -9 9 -9 8 0 12 4 9 9 -3 4 -7 8 -9 8 -2 0 -6 -4
-9 -8z"/>
<path d="M2505 2250 c4 -6 11 -8 16 -5 14 9 11 15 -7 15 -8 0 -12 -5 -9 -10z"/>
<path d="M6066 2211 c-10 -16 6 -42 21 -37 8 3 19 6 24 6 5 0 0 9 -11 20 -23
23 -26 24 -34 11z"/>
<path d="M5382 2118 c-14 -14 -16 -38 -3 -38 10 0 26 39 19 46 -2 2 -10 -2
-16 -8z"/>
<path d="M6027 2093 c-2 -4 -7 -20 -11 -35 l-6 -26 40 15 c38 15 55 43 26 43
-8 0 -21 3 -29 6 -8 3 -17 2 -20 -3z"/>
<path d="M5336 1955 c-3 -9 2 -13 15 -12 22 2 25 13 5 20 -8 3 -17 0 -20 -8z"/>
<path d="M5523 1959 c-13 -5 -23 -13 -23 -18 0 -5 -10 -7 -22 -4 -22 5 -22 5
-3 -10 10 -8 26 -12 34 -9 9 3 12 1 7 -6 -3 -6 -2 -14 4 -17 6 -4 9 -1 8 5 -2
7 5 14 15 15 28 5 31 12 16 33 -11 15 -19 17 -36 11z"/>
<path d="M6191 1883 c3 -20 -2 -34 -11 -28 -5 3 -10 1 -10 -6 0 -8 12 -10 38
-5 20 3 43 6 51 6 8 0 3 8 -12 20 -25 20 -58 27 -56 13z"/>
<path d="M2730 1819 c0 -5 5 -7 10 -4 6 3 10 8 10 11 0 2 -4 4 -10 4 -5 0 -10
-5 -10 -11z"/>
<path d="M2800 1776 c0 -2 11 -6 25 -8 13 -3 22 -1 19 3 -5 9 -44 13 -44 5z"/>
<path d="M5326 1713 c-3 -3 -3 -10 0 -14 7 -12 34 -11 34 0 0 11 -26 22 -34
14z"/>
<path d="M6030 1650 c0 -6 7 -13 15 -17 24 -9 27 1 5 15 -13 8 -20 8 -20 2z"/>
<path d="M6084 1634 c4 -24 18 -27 41 -10 20 15 20 15 0 12 -11 -2 -25 1 -32
6 -8 6 -11 4 -9 -8z"/>
<path d="M5948 1633 c7 -3 16 -2 19 1 4 3 -2 6 -13 5 -11 0 -14 -3 -6 -6z"/>
<path d="M5459 1528 c-8 -7 -12 -12 -10 -11 2 2 10 -2 17 -7 13 -12 54 -22 54
-14 0 3 -5 14 -10 25 -12 22 -30 24 -51 7z"/>
<path d="M6100 1531 c0 -5 5 -13 10 -16 6 -3 10 -2 10 4 0 5 -4 13 -10 16 -5
3 -10 2 -10 -4z"/>
<path d="M5836 1477 c-25 -18 -11 -46 22 -44 32 3 38 19 14 40 -15 14 -21 15
-36 4z"/>
<path d="M6030 1470 c0 -12 28 -25 36 -17 3 3 -4 10 -15 17 -15 7 -21 7 -21 0z"/>
<path d="M6127 1464 c-10 -11 5 -34 22 -34 20 1 53 25 44 33 -8 9 -58 9 -66 1z"/>
<path d="M5750 1419 c0 -5 -4 -7 -10 -4 -5 3 -10 -1 -10 -9 0 -11 6 -13 23 -9
12 3 39 7 60 7 41 1 49 11 15 20 -36 9 -78 7 -78 -5z"/>
<path d="M5619 1387 c16 -16 14 -30 -4 -23 -31 12 -13 -6 20 -20 36 -15 44
-31 23 -52 -12 -12 -6 -14 60 -15 14 -1 21 -6 18 -13 -7 -19 25 -26 38 -9 7
10 33 16 77 18 36 2 71 7 77 11 7 4 18 4 25 -1 22 -14 36 -12 30 5 -4 10 -2
13 5 8 7 -4 12 -5 12 -2 0 3 -17 13 -37 21 -35 15 -41 15 -75 -1 -21 -9 -38
-20 -38 -23 0 -3 -13 -6 -30 -6 -36 -1 -38 8 -7 23 21 11 21 11 -5 7 -33 -4
-38 12 -5 18 25 4 32 0 -68 38 -62 23 -133 33 -116 16z"/>
<path d="M6074 1389 c-3 -5 4 -9 16 -9 11 0 23 -6 26 -13 3 -8 11 -14 18 -14
8 0 12 5 10 12 -6 15 -63 35 -70 24z"/>
<path d="M5462 1355 c-52 -13 -78 -25 -53 -25 8 0 10 -7 6 -20 -5 -15 -3 -18
9 -14 9 3 16 9 16 13 0 4 18 17 40 30 22 12 40 24 40 27 0 2 -1 4 -2 3 -2 -1
-27 -7 -56 -14z"/>
<path d="M6055 1320 c3 -5 16 -10 28 -9 21 0 21 1 2 9 -28 12 -37 12 -30 0z"/>
<path d="M6025 1283 c-4 -15 -8 -34 -11 -40 -4 -15 0 -16 24 -4 9 5 29 14 44
21 21 10 25 17 17 26 -5 7 -18 11 -27 9 -9 -1 -22 2 -29 7 -9 7 -14 2 -18 -19z"/>
<path d="M5510 1281 c0 -5 20 -9 45 -9 27 -1 43 3 40 8 -8 12 -85 13 -85 1z"/>
<path d="M5858 1263 c-22 -5 -23 -22 -3 -50 13 -19 13 -22 -1 -27 -13 -5 -14
-9 -4 -21 10 -13 8 -15 -13 -15 -32 0 -42 -14 -22 -30 17 -14 55 -4 55 15 0
11 8 13 30 9 19 -4 30 -2 30 5 0 7 8 8 23 2 12 -5 31 -5 42 -1 13 4 24 2 30
-7 9 -12 13 -11 28 5 16 18 16 20 -4 46 -22 28 -34 27 -34 -5 0 -22 -6 -23
-68 -8 -37 9 -48 16 -53 35 -3 13 -10 24 -15 24 -5 0 -6 7 -3 15 4 8 5 14 3
14 -2 -1 -12 -3 -21 -6z"/>
<path d="M5956 1235 c-14 -10 -24 -12 -38 -4 -17 9 -18 8 -10 -8 18 -34 62
-24 68 15 3 15 3 15 -20 -3z"/>
<path d="M5640 1231 c0 -15 16 -22 35 -15 13 5 14 8 3 15 -18 12 -38 11 -38 0z"/>
<path d="M5716 1151 c-3 -5 1 -11 9 -15 8 -3 15 -1 15 4 0 13 -18 22 -24 11z"/>
<path d="M6009 1083 c-9 -18 -13 -36 -8 -39 5 -3 9 1 9 9 0 9 9 13 25 12 34
-4 38 6 12 31 l-22 21 -16 -34z"/>
<path d="M5665 1096 c-18 -13 -18 -14 3 -25 33 -18 69 -14 75 9 6 23 3 24 -23
10 -14 -8 -21 -6 -27 5 -8 13 -12 13 -28 1z"/>
<path d="M5778 1086 c-22 -16 -23 -30 -2 -61 9 -13 13 -28 10 -34 -7 -10 16
-21 45 -21 17 0 18 3 7 21 -10 17 -10 23 -1 26 14 5 -15 43 -33 43 -7 0 -10 8
-7 20 6 23 4 24 -19 6z"/>
<path d="M6196 1086 c3 -9 1 -16 -5 -16 -6 0 -11 -7 -11 -15 0 -12 7 -14 28
-11 15 2 33 5 40 5 6 1 12 5 12 9 0 8 -14 16 -63 40 -4 2 -4 -3 -1 -12z"/>
<path d="M5878 1063 c7 -3 16 -2 19 1 4 3 -2 6 -13 5 -11 0 -14 -3 -6 -6z"/>
<path d="M6026 1018 c3 -4 9 -8 15 -8 5 0 9 4 9 8 0 5 -7 9 -15 9 -8 0 -12 -4
-9 -9z"/>
<path d="M5426 947 c-16 -12 -16 -15 -4 -19 21 -9 46 8 32 22 -7 7 -16 6 -28
-3z"/>
<path d="M5523 923 c5 -16 29 -84 33 -91 1 -2 14 -5 29 -8 15 -3 25 -1 23 3
-3 4 -15 32 -28 61 -17 36 -30 52 -43 52 -14 0 -18 -5 -14 -17z"/>
<path d="M6060 931 c-19 -5 -21 -8 -9 -13 8 -3 26 0 40 8 25 14 11 17 -31 5z"/>
<path d="M5787 899 c7 -7 15 -10 18 -7 3 3 -2 9 -12 12 -14 6 -15 5 -6 -5z"/>
<path d="M5946 884 c-3 -9 -6 -17 -6 -18 0 -1 11 -2 25 -2 23 0 23 1 8 18 -20
22 -19 22 -27 2z"/>
<path d="M5830 879 c0 -5 5 -7 10 -4 6 3 10 8 10 11 0 2 -4 4 -10 4 -5 0 -10
-5 -10 -11z"/>
<path d="M5751 868 c-22 -6 -30 -12 -23 -17 8 -4 10 -15 6 -26 -8 -19 3 -16
36 12 8 7 24 19 35 27 l20 15 -20 0 c-11 -1 -35 -5 -54 -11z"/>
<path d="M6030 852 c0 -10 21 -32 32 -32 16 0 8 19 -12 30 -11 6 -20 7 -20 2z"/>
<path d="M6080 827 c0 -15 30 -19 44 -4 13 12 11 14 -15 13 -16 -1 -29 -5 -29
-9z"/>
<path d="M5830 801 c0 -6 23 -10 52 -9 33 0 46 3 37 9 -19 12 -89 11 -89 0z"/>
<path d="M6036 671 c-3 -5 3 -11 15 -14 16 -4 18 -3 8 9 -13 16 -16 17 -23 5z"/>
<path d="M5968 663 c12 -2 30 -2 40 0 9 3 -1 5 -23 4 -22 0 -30 -2 -17 -4z"/>
<path d="M6124 659 c-7 -11 12 -29 31 -29 16 1 45 26 38 33 -11 11 -61 8 -69
-4z"/>
<path d="M6040 610 c-8 -5 -25 -7 -37 -3 -32 7 -29 -4 6 -21 26 -14 30 -14 45
3 19 21 9 35 -14 21z"/>
<path d="M6116 565 c4 -8 10 -15 15 -15 5 0 9 7 9 15 0 8 -7 15 -15 15 -9 0
-12 -6 -9 -15z"/>
<path d="M5738 513 c6 -2 18 -2 25 0 6 3 1 5 -13 5 -14 0 -19 -2 -12 -5z"/>
<path d="M5746 468 c-15 -8 -16 -12 -5 -19 20 -12 26 -11 32 6 8 20 -4 26 -27
13z"/>
<path d="M5854 456 c-19 -14 -19 -15 -1 -46 10 -17 16 -37 14 -44 -4 -9 5 -16
25 -20 17 -3 33 -4 35 -2 2 2 -9 26 -25 52 -16 27 -27 55 -24 62 5 16 0 15
-24 -2z"/>
</g>
</svg>
