<svg width="196" height="53" viewBox="0 0 196 53" fill="none" xmlns="http://www.w3.org/2000/svg">
<g filter="url(#filter0_d_9_18)">
<path d="M82.5541 44.5477V14.0201H82.3275L70.0914 44.5477H65.3328L53.0967 14.0201H52.8701V44.5477H47.2052V3.16583H54.4562L67.5988 36.1809H67.8254L80.968 3.16583H88.4456V44.5477H82.5541ZM120.396 44.5477H114.504V39.3467H114.278C112.691 42.9648 109.519 45 104.987 45C98.4159 45 94.5637 40.7035 94.5637 33.6935V14.2462H100.682V32.5628C100.682 37.0854 102.948 39.5729 107.027 39.5729C111.558 39.5729 114.051 36.407 114.051 31.6583V14.2462H120.169L120.396 44.5477ZM137.164 13.794C144.188 13.794 148.494 17.6382 148.72 23.2915H143.055C142.602 20.3518 140.563 18.5427 137.164 18.5427C133.765 18.5427 131.499 20.1256 131.499 22.6131C131.499 24.4221 132.858 25.7789 136.031 26.4573L140.789 27.5879C146.907 28.9447 149.173 31.4322 149.173 35.7286C149.173 41.1558 144.188 45 137.164 45C129.686 45 125.154 41.3819 124.701 35.5025H130.819C131.272 38.6683 133.538 40.2513 137.164 40.2513C140.789 40.2513 143.055 38.6683 143.055 36.1809C143.055 34.1457 141.922 33.0151 138.75 32.3367L133.991 31.206C128.327 29.8492 125.607 27.1357 125.607 22.6131C125.607 17.4121 130.139 13.794 137.164 13.794ZM153.705 6.33166C153.705 4.29648 155.291 2.71357 157.331 2.71357C159.37 2.71357 160.956 4.29648 160.956 6.33166C160.956 8.36683 159.37 9.94975 157.331 9.94975C155.291 9.94975 153.705 8.36683 153.705 6.33166ZM154.158 14.2462H160.277V44.5477H154.158V14.2462ZM186.109 24.6482C185.429 21.4824 183.163 18.7688 179.084 18.7688C174.326 18.7688 171.153 22.8392 171.153 29.1709C171.153 35.7286 174.326 39.5729 179.084 39.5729C182.936 39.5729 185.202 37.5377 186.109 33.9196H192C191.32 40.2513 186.335 44.7739 179.084 44.7739C170.473 44.7739 165.035 38.8945 165.035 29.1709C165.035 19.6734 170.473 13.5678 179.084 13.5678C186.788 13.5678 191.32 18.5427 192 24.4221L186.109 24.6482ZM28.3977 7.23618C26.8115 9.04523 24.319 10.6281 21.8264 10.402C21.3732 7.68844 22.7328 4.97487 24.0924 3.39196C25.6785 1.35678 28.3977 0 30.6637 0C30.8903 2.48744 29.9839 5.201 28.3977 7.23618ZM30.6637 10.8543C32.0232 10.8543 36.102 11.3065 38.8211 15.3769C38.5945 15.603 34.0626 18.3166 34.0626 23.9699C34.0626 30.7538 39.9541 33.0151 39.9541 33.0151C39.9541 33.2412 39.0477 36.1809 37.0083 39.3467C35.1956 42.0603 33.1562 44.7739 30.2105 44.7739C27.2647 44.7739 26.3583 42.9648 22.9594 42.9648C19.5605 42.9648 18.4275 44.7739 15.7083 44.7739C12.7626 44.7739 10.4966 41.8342 8.68384 39.1206C4.83171 33.4673 1.88597 23.2915 5.96469 16.5075C7.77746 13.1156 11.403 10.8543 15.0285 10.8543C17.9743 10.8543 20.6934 12.8894 22.2796 12.8894C23.8658 12.8894 27.0381 10.6281 30.6637 10.8543Z" fill="white"/>
</g>
<defs>
<filter id="filter0_d_9_18" x="0" y="0" width="196" height="53" filterUnits="userSpaceOnUse" color-interpolation-filters="sRGB">
<feFlood flood-opacity="0" result="BackgroundImageFix"/>
<feColorMatrix in="SourceAlpha" type="matrix" values="0 0 0 0 0 0 0 0 0 0 0 0 0 0 0 0 0 0 127 0" result="hardAlpha"/>
<feOffset dy="4"/>
<feGaussianBlur stdDeviation="2"/>
<feComposite in2="hardAlpha" operator="out"/>
<feColorMatrix type="matrix" values="0 0 0 0 0 0 0 0 0 0 0 0 0 0 0 0 0 0 0.25 0"/>
<feBlend mode="normal" in2="BackgroundImageFix" result="effect1_dropShadow_9_18"/>
<feBlend mode="normal" in="SourceGraphic" in2="effect1_dropShadow_9_18" result="shape"/>
</filter>
</defs>
</svg>
