<svg width="27" height="27" viewBox="0 0 27 27" fill="none" xmlns="http://www.w3.org/2000/svg">
<g clip-path="url(#clip0_7_2)">
<path d="M26.519 25.8804C27.1504 25.6508 27.1504 24.6748 26.5764 24.5027C27.0356 23.2399 23.9933 20.6568 23.3044 19.8532C22.0989 18.4181 20.9509 16.983 19.9177 15.4332C18.9419 13.9408 18.7697 13.3667 19.8604 11.9316C21.8695 9.40591 24.2804 7.16722 25.8876 4.3545C26.232 3.72308 27.1505 0.565952 25.371 1.19738C25.371 1.19738 25.371 1.19738 25.3136 1.19738C25.1988 0.967768 24.9692 0.852963 24.6248 0.967768C16.5884 4.98584 8.26502 8.54478 0.400907 12.9074C-0.000909344 13.137 -0.173116 13.8258 0.2287 14.1129C4.87829 17.7866 10.6185 19.2217 15.8422 21.8622C18.4827 23.2398 23.3045 26.971 26.519 25.8804ZM16.1292 11.7593C16.0718 11.7019 16.0718 11.7019 16.0144 11.6445C16.0717 11.5871 16.1292 11.5297 16.1866 11.4723C16.3588 11.3575 16.4736 11.3001 16.6459 11.1853C16.531 11.3575 16.4162 11.4723 16.3014 11.6445C16.244 11.7019 16.1866 11.7593 16.1292 11.7593Z" fill="#454545"/>
</g>
<defs>
<clipPath id="clip0_7_2">
<rect width="27" height="27" fill="white"/>
</clipPath>
</defs>
</svg>
