<svg width="183" height="105" viewBox="0 0 183 105" fill="none" xmlns="http://www.w3.org/2000/svg">
<path d="M2.07237 47.8429C1.69056 47.8429 1.38748 48.14 1.33828 48.5639L0 58.7953L1.33828 68.8504C1.38748 69.2743 1.69056 69.5695 2.07237 69.5695C2.44236 69.5695 2.74347 69.2763 2.80252 68.8544V68.8524C2.80252 68.8524 2.80252 68.8524 2.80252 68.8544L4.38877 58.7953L2.80252 48.562C2.74544 48.14 2.44039 47.8429 2.07237 47.8429ZM9.59822 42.2528C9.53525 41.813 9.22233 41.5099 8.83659 41.5099C8.44888 41.5099 8.12809 41.8229 8.07495 42.2528C8.07495 42.2567 6.27614 58.7953 6.27614 58.7953L8.07495 74.9714C8.12612 75.4052 8.44691 75.7182 8.83659 75.7182C9.22036 75.7182 9.53328 75.4132 9.59626 74.9754L11.643 58.7953L9.59822 42.2528ZM37.9462 26.9938C37.2081 26.9938 36.598 27.602 36.5626 28.3745L35.1299 58.8092L36.5626 78.4776C36.6 79.2462 37.2081 79.8524 37.9462 79.8524C38.6802 79.8524 39.2884 79.2442 39.3317 78.4737V78.4796L40.9514 58.8092L39.3317 28.3745C39.2884 27.602 38.6802 26.9938 37.9462 26.9938ZM23.2743 37.5719C22.7075 37.5719 22.245 38.0275 22.1997 38.6356L20.5859 58.8013L22.1997 78.3112C22.243 78.9154 22.7075 79.371 23.2743 79.371C23.8352 79.371 24.2977 78.9154 24.3469 78.3112L26.1811 58.8013L24.3469 38.6317C24.2977 38.0275 23.8352 37.5719 23.2743 37.5719ZM52.8562 79.8504C53.7713 79.8504 54.5152 79.1076 54.5526 78.1567L55.9578 58.8191L54.5546 18.2996C54.5172 17.3488 53.7733 16.606 52.8581 16.606C51.9351 16.606 51.1892 17.3508 51.1597 18.3016C51.1597 18.3036 49.9139 58.8171 49.9139 58.8171L51.1597 78.1627C51.1892 79.1056 51.9351 79.8504 52.8562 79.8504ZM83.3808 79.9415C84.6403 79.9415 85.6795 78.8976 85.7031 77.6139V77.6278V77.6139L86.6832 58.831L85.7031 12.034C85.6814 10.7524 84.6403 9.70645 83.3808 9.70645C82.1192 9.70645 81.0781 10.7504 81.0585 12.036L80.1827 58.8151C80.1827 58.8448 81.0585 77.6258 81.0585 77.6258C81.0781 78.8976 82.1212 79.9415 83.3808 79.9415ZM68.0024 79.8682C69.0986 79.8682 69.9822 78.9828 70.0117 77.8536V77.8675L71.2044 58.8231L70.0098 18.0104C69.9803 16.8813 69.0966 15.9978 68.0004 15.9978C66.8963 15.9978 66.0126 16.8813 65.989 18.0104L64.9282 58.825L65.991 77.8655C66.0146 78.9828 66.8983 79.8682 68.0024 79.8682ZM30.5817 79.6899C31.2331 79.6899 31.7605 79.165 31.8097 78.4737L33.5377 58.8013L31.8097 40.0876C31.7625 39.3963 31.2351 38.8753 30.5817 38.8753C29.9204 38.8753 29.393 39.4003 29.3516 40.0956L27.8303 58.8013L29.3516 78.4717C29.3949 79.165 29.9204 79.6899 30.5817 79.6899ZM16.0259 78.6123C16.5022 78.6123 16.8879 78.234 16.943 77.711L18.8835 58.7973L16.945 39.1705C16.8879 38.6455 16.5022 38.2672 16.0259 38.2672C15.5437 38.2672 15.158 38.6475 15.1088 39.1705C15.1088 39.1725 13.4005 58.7973 13.4005 58.7973L15.1088 77.7071C15.156 78.232 15.5418 78.6123 16.0259 78.6123ZM75.662 17.331C74.4714 17.331 73.5169 18.2838 73.4932 19.504L72.525 58.827L73.4932 77.7487C73.5169 78.953 74.4694 79.9059 75.662 79.9059C76.8507 79.9059 77.7993 78.955 77.8269 77.7348V77.7506L78.9133 58.829L77.8269 19.5001C77.7993 18.2838 76.8507 17.331 75.662 17.331ZM45.3736 79.89C46.1963 79.89 46.8752 79.2145 46.9146 78.3528L48.4261 58.8151L46.9146 21.4196C46.8733 20.5559 46.1963 19.8824 45.3736 19.8824C44.5431 19.8824 43.8661 20.5579 43.8306 21.4196C43.8306 21.4215 42.4924 58.8151 42.4924 58.8151L43.8326 78.3607C43.8661 79.2145 44.5431 79.89 45.3736 79.89ZM62.2517 78.0458V78.0359L63.5506 58.8211L62.2517 16.9368C62.2202 15.8968 61.4054 15.0807 60.3997 15.0807C59.3882 15.0807 58.5734 15.8948 58.5458 16.9368L57.3925 58.8191L58.5478 78.0438C58.5754 79.0739 59.3901 79.888 60.3997 79.888C61.4074 79.888 62.2182 79.0739 62.2517 78.0379V78.0458ZM160.493 34.6778C157.409 34.6778 154.467 35.3057 151.787 36.4368C149.996 16.0176 132.984 0 112.233 0C107.155 0 102.205 1.0063 97.8342 2.7079C96.1358 3.36952 95.6831 4.05096 95.6674 5.37222V77.2792C95.6851 78.6658 96.7537 79.8207 98.0979 79.9574C98.155 79.9633 160.09 79.995 160.491 79.995C172.922 79.995 183 69.8508 183 57.3374C183 44.824 172.924 34.6778 160.493 34.6778ZM91.066 5.30883C89.714 5.30883 88.604 6.42606 88.5843 7.79883L87.5688 58.8369L88.5863 77.3604C88.604 78.7134 89.714 79.8286 91.066 79.8286C92.4142 79.8286 93.5241 78.7134 93.5438 77.3406V77.3624L94.6479 58.8369L93.5438 7.79487C93.5241 6.42606 92.4142 5.30883 91.066 5.30883ZM18.177 94.3982C15.5142 93.7683 14.7939 93.4315 14.7939 92.3697C14.7939 91.6209 15.3942 90.8464 17.193 90.8464C18.73 90.8464 19.9305 91.4744 21.009 92.5856L23.4317 90.2204C21.8474 88.5545 19.9286 87.564 17.315 87.564C14.0008 87.564 11.3144 89.4479 11.3144 92.5163C11.3144 95.8482 13.4753 96.8387 16.5691 97.5617C19.7357 98.2847 20.3123 98.77 20.3123 99.8576C20.3123 101.137 19.3736 101.694 17.3858 101.694C15.7779 101.694 14.2665 101.139 13.0896 99.7585L10.6669 101.934C11.9382 103.817 14.3885 105 17.193 105C21.7785 105 23.7938 102.827 23.7938 99.6159C23.7938 95.9433 20.8417 95.0261 18.177 94.3982ZM33.6341 87.564C29.0525 87.564 26.3425 91.1376 26.3425 96.282C26.3425 101.426 29.0525 104.998 33.6341 104.998C38.2158 104.998 40.9297 101.426 40.9297 96.282C40.9297 91.1376 38.2158 87.564 33.6341 87.564ZM33.6341 101.644C30.9241 101.644 29.7944 99.3009 29.7944 96.284C29.7944 93.2651 30.9241 90.9217 33.6341 90.9217C36.3481 90.9217 37.4738 93.2651 37.4738 96.284C37.4738 99.3009 36.3481 101.644 33.6341 101.644ZM54.4877 97.322C54.4877 100.026 53.1652 101.694 51.0318 101.694C48.8964 101.694 47.6015 99.9784 47.6015 97.2745V87.8275H44.24V97.322C44.24 102.247 46.9776 105 51.0318 105C55.3025 105 57.8472 102.173 57.8472 97.2745V87.8275H54.4877V97.322ZM72.338 94.9786C72.338 95.9215 72.3852 98.045 72.3852 98.673C72.1687 98.2372 71.6177 97.3933 71.2103 96.7634L65.2569 87.8255H62.0431V104.735H65.3553V97.2943C65.3553 96.3514 65.3081 94.2278 65.3081 93.5999C65.5226 94.0337 66.0776 94.8795 66.483 95.5095L72.6509 104.735H75.6502V87.8255H72.338V94.9786ZM85.2229 87.8275H79.9682V104.737H84.9808C89.3007 104.737 93.5734 102.223 93.5734 96.282C93.5734 90.0976 90.021 87.8275 85.2229 87.8275ZM84.9808 101.452H83.3276V91.1138H85.1028C88.6552 91.1138 90.1194 92.8273 90.1194 96.282C90.1194 99.3742 88.5095 101.452 84.9808 101.452ZM103.963 90.9197C105.474 90.9197 106.435 91.5972 107.035 92.756L110.154 91.308C109.097 89.1111 107.177 87.564 104.01 87.564C99.6232 87.564 96.5491 91.1376 96.5491 96.282C96.5491 101.619 99.4992 104.998 103.89 104.998C106.938 104.998 108.954 103.574 110.105 101.183L107.275 99.4911C106.387 100.991 105.498 101.642 103.986 101.642C101.467 101.642 100.003 99.3227 100.003 96.282C100.001 93.1443 101.446 90.9197 103.963 90.9197ZM116.423 87.8275H113.063V104.737H123.159V101.401H116.423V87.8275ZM132.01 87.564C127.424 87.564 124.714 91.1376 124.714 96.282C124.714 101.426 127.424 104.998 132.01 104.998C136.591 104.998 139.303 101.426 139.303 96.282C139.303 91.1376 136.591 87.564 132.01 87.564ZM132.01 101.644C129.296 101.644 128.17 99.3009 128.17 96.284C128.17 93.2651 129.296 90.9217 132.01 90.9217C134.718 90.9217 135.845 93.2651 135.845 96.284C135.845 99.3009 134.718 101.644 132.01 101.644ZM152.859 97.322C152.859 100.026 151.543 101.694 149.407 101.694C147.268 101.694 145.975 99.9784 145.975 97.2745V87.8275H142.615V97.322C142.615 102.247 145.351 105 149.407 105C153.678 105 156.221 102.173 156.221 97.2745V87.8275H152.859V97.322ZM165.673 87.8275H160.42V104.737H165.433C169.755 104.737 174.024 102.223 174.024 96.282C174.024 90.0976 170.473 87.8275 165.673 87.8275ZM165.433 101.452H163.778V91.1138H165.555C169.104 91.1138 170.568 92.8273 170.568 96.282C170.568 99.3742 168.96 101.452 165.433 101.452Z" fill="url(#paint0_linear_9_16)"/>
<defs>
<linearGradient id="paint0_linear_9_16" x1="91.5004" y1="0" x2="91.5004" y2="105.001" gradientUnits="userSpaceOnUse">
<stop stop-color="white"/>
<stop offset="1" stop-color="#F4F4F4"/>
</linearGradient>
</defs>
</svg>
