<svg width="191" height="113" viewBox="0 0 191 113" fill="none" xmlns="http://www.w3.org/2000/svg">
<g filter="url(#filter0_d_9_16)">
<path d="M6.07237 47.8429C5.69056 47.8429 5.38748 48.14 5.33828 48.5639L4 58.7953L5.33828 68.8504C5.38748 69.2743 5.69056 69.5695 6.07237 69.5695C6.44236 69.5695 6.74347 69.2763 6.80252 68.8544V68.8524C6.80252 68.8524 6.80252 68.8524 6.80252 68.8544L8.38877 58.7953L6.80252 48.562C6.74544 48.14 6.44039 47.8429 6.07237 47.8429ZM13.5982 42.2528C13.5352 41.813 13.2223 41.5099 12.8366 41.5099C12.4489 41.5099 12.1281 41.8229 12.0749 42.2528C12.0749 42.2567 10.2761 58.7953 10.2761 58.7953L12.0749 74.9714C12.1261 75.4052 12.4469 75.7182 12.8366 75.7182C13.2204 75.7182 13.5333 75.4132 13.5963 74.9754L15.643 58.7953L13.5982 42.2528ZM41.9462 26.9938C41.2081 26.9938 40.598 27.602 40.5626 28.3745L39.1299 58.8092L40.5626 78.4776C40.6 79.2462 41.2081 79.8524 41.9462 79.8524C42.6802 79.8524 43.2884 79.2442 43.3317 78.4737V78.4796L44.9514 58.8092L43.3317 28.3745C43.2884 27.602 42.6802 26.9938 41.9462 26.9938ZM27.2743 37.5719C26.7075 37.5719 26.245 38.0275 26.1997 38.6356L24.5859 58.8013L26.1997 78.3112C26.243 78.9154 26.7075 79.371 27.2743 79.371C27.8352 79.371 28.2977 78.9154 28.3469 78.3112L30.1811 58.8013L28.3469 38.6317C28.2977 38.0275 27.8352 37.5719 27.2743 37.5719ZM56.8562 79.8504C57.7713 79.8504 58.5152 79.1076 58.5526 78.1567L59.9578 58.8191L58.5546 18.2996C58.5172 17.3488 57.7733 16.606 56.8581 16.606C55.9351 16.606 55.1892 17.3508 55.1597 18.3016C55.1597 18.3036 53.9139 58.8171 53.9139 58.8171L55.1597 78.1627C55.1892 79.1056 55.9351 79.8504 56.8562 79.8504ZM87.3808 79.9415C88.6403 79.9415 89.6795 78.8976 89.7031 77.6139V77.6278V77.6139L90.6832 58.831L89.7031 12.034C89.6814 10.7524 88.6403 9.70645 87.3808 9.70645C86.1192 9.70645 85.0781 10.7504 85.0585 12.036L84.1827 58.8151C84.1827 58.8448 85.0585 77.6258 85.0585 77.6258C85.0781 78.8976 86.1212 79.9415 87.3808 79.9415ZM72.0024 79.8682C73.0986 79.8682 73.9822 78.9827 74.0117 77.8536V77.8675L75.2044 58.8231L74.0098 18.0104C73.9803 16.8813 73.0966 15.9978 72.0004 15.9978C70.8963 15.9978 70.0126 16.8813 69.989 18.0104L68.9282 58.825L69.991 77.8655C70.0146 78.9827 70.8983 79.8682 72.0024 79.8682ZM34.5817 79.6899C35.2331 79.6899 35.7605 79.165 35.8097 78.4737L37.5377 58.8013L35.8097 40.0876C35.7625 39.3963 35.2351 38.8753 34.5817 38.8753C33.9204 38.8753 33.393 39.4003 33.3516 40.0956L31.8303 58.8013L33.3516 78.4717C33.3949 79.165 33.9204 79.6899 34.5817 79.6899ZM20.0259 78.6123C20.5022 78.6123 20.8879 78.234 20.943 77.711L22.8835 58.7973L20.945 39.1705C20.8879 38.6455 20.5022 38.2672 20.0259 38.2672C19.5437 38.2672 19.158 38.6475 19.1088 39.1705C19.1088 39.1725 17.4005 58.7973 17.4005 58.7973L19.1088 77.7071C19.156 78.232 19.5418 78.6123 20.0259 78.6123ZM79.662 17.331C78.4714 17.331 77.5169 18.2838 77.4932 19.504L76.525 58.827L77.4932 77.7486C77.5169 78.953 78.4694 79.9059 79.662 79.9059C80.8507 79.9059 81.7993 78.955 81.8269 77.7348V77.7506L82.9133 58.829L81.8269 19.5001C81.7993 18.2838 80.8507 17.331 79.662 17.331ZM49.3736 79.89C50.1963 79.89 50.8752 79.2145 50.9146 78.3528L52.4261 58.8151L50.9146 21.4196C50.8733 20.5559 50.1963 19.8824 49.3736 19.8824C48.5431 19.8824 47.8661 20.5579 47.8307 21.4196C47.8307 21.4215 46.4924 58.8151 46.4924 58.8151L47.8326 78.3607C47.8661 79.2145 48.5431 79.89 49.3736 79.89ZM66.2517 78.0458V78.0359L67.5506 58.8211L66.2517 16.9368C66.2202 15.8968 65.4054 15.0807 64.3997 15.0807C63.3882 15.0807 62.5734 15.8948 62.5458 16.9368L61.3925 58.8191L62.5478 78.0438C62.5754 79.0739 63.3901 79.888 64.3997 79.888C65.4074 79.888 66.2182 79.0739 66.2517 78.0379V78.0458ZM164.493 34.6778C161.409 34.6778 158.467 35.3057 155.787 36.4368C153.996 16.0176 136.984 0 116.233 0C111.155 0 106.205 1.0063 101.834 2.7079C100.136 3.36952 99.6831 4.05096 99.6674 5.37222V77.2792C99.6851 78.6658 100.754 79.8207 102.098 79.9574C102.155 79.9633 164.09 79.995 164.491 79.995C176.922 79.995 187 69.8508 187 57.3374C187 44.824 176.924 34.6778 164.493 34.6778ZM95.066 5.30883C93.714 5.30883 92.604 6.42606 92.5843 7.79883L91.5688 58.8369L92.5863 77.3604C92.604 78.7134 93.714 79.8286 95.066 79.8286C96.4142 79.8286 97.5241 78.7133 97.5438 77.3406V77.3624L98.6479 58.8369L97.5438 7.79487C97.5241 6.42606 96.4142 5.30883 95.066 5.30883ZM22.177 94.3982C19.5142 93.7682 18.7939 93.4315 18.7939 92.3697C18.7939 91.6209 19.3942 90.8464 21.193 90.8464C22.73 90.8464 23.9305 91.4744 25.009 92.5856L27.4317 90.2204C25.8474 88.5545 23.9286 87.564 21.315 87.564C18.0008 87.564 15.3144 89.4479 15.3144 92.5163C15.3144 95.8482 17.4753 96.8387 20.5691 97.5617C23.7357 98.2847 24.3123 98.77 24.3123 99.8576C24.3123 101.137 23.3736 101.694 21.3858 101.694C19.7779 101.694 18.2665 101.139 17.0896 99.7585L14.6669 101.934C15.9382 103.817 18.3885 105 21.193 105C25.7785 105 27.7938 102.827 27.7938 99.6159C27.7938 95.9433 24.8417 95.0261 22.177 94.3982ZM37.6341 87.564C33.0525 87.564 30.3425 91.1376 30.3425 96.282C30.3425 101.426 33.0525 104.998 37.6341 104.998C42.2158 104.998 44.9297 101.426 44.9297 96.282C44.9297 91.1376 42.2158 87.564 37.6341 87.564ZM37.6341 101.644C34.9241 101.644 33.7944 99.3009 33.7944 96.284C33.7944 93.2651 34.9241 90.9217 37.6341 90.9217C40.3481 90.9217 41.4738 93.2651 41.4738 96.284C41.4738 99.3009 40.3481 101.644 37.6341 101.644ZM58.4877 97.322C58.4877 100.026 57.1652 101.694 55.0318 101.694C52.8964 101.694 51.6015 99.9784 51.6015 97.2745V87.8275H48.24V97.322C48.24 102.247 50.9776 105 55.0318 105C59.3025 105 61.8472 102.173 61.8472 97.2745V87.8275H58.4877V97.322ZM76.338 94.9786C76.338 95.9215 76.3852 98.045 76.3852 98.673C76.1687 98.2372 75.6177 97.3933 75.2103 96.7634L69.2569 87.8255H66.0431V104.735H69.3553V97.2943C69.3553 96.3514 69.3081 94.2278 69.3081 93.5999C69.5226 94.0337 70.0776 94.8795 70.483 95.5095L76.6509 104.735H79.6502V87.8255H76.338V94.9786ZM89.2229 87.8275H83.9682V104.737H88.9808C93.3007 104.737 97.5733 102.223 97.5733 96.282C97.5733 90.0976 94.021 87.8275 89.2229 87.8275ZM88.9808 101.452H87.3276V91.1138H89.1028C92.6552 91.1138 94.1194 92.8273 94.1194 96.282C94.1194 99.3742 92.5095 101.452 88.9808 101.452ZM107.963 90.9197C109.474 90.9197 110.435 91.5972 111.035 92.756L114.154 91.308C113.097 89.1111 111.177 87.564 108.01 87.564C103.623 87.564 100.549 91.1376 100.549 96.282C100.549 101.619 103.499 104.998 107.89 104.998C110.938 104.998 112.954 103.574 114.105 101.183L111.275 99.4911C110.387 100.991 109.498 101.642 107.986 101.642C105.467 101.642 104.003 99.3227 104.003 96.282C104.001 93.1443 105.446 90.9197 107.963 90.9197ZM120.423 87.8275H117.063V104.737H127.159V101.401H120.423V87.8275ZM136.01 87.564C131.424 87.564 128.714 91.1376 128.714 96.282C128.714 101.426 131.424 104.998 136.01 104.998C140.591 104.998 143.303 101.426 143.303 96.282C143.303 91.1376 140.591 87.564 136.01 87.564ZM136.01 101.644C133.296 101.644 132.17 99.3009 132.17 96.284C132.17 93.2651 133.296 90.9217 136.01 90.9217C138.718 90.9217 139.845 93.2651 139.845 96.284C139.845 99.3009 138.718 101.644 136.01 101.644ZM156.859 97.322C156.859 100.026 155.543 101.694 153.407 101.694C151.268 101.694 149.975 99.9784 149.975 97.2745V87.8275H146.615V97.322C146.615 102.247 149.351 105 153.407 105C157.678 105 160.221 102.173 160.221 97.2745V87.8275H156.859V97.322ZM169.673 87.8275H164.42V104.737H169.433C173.755 104.737 178.024 102.223 178.024 96.282C178.024 90.0976 174.473 87.8275 169.673 87.8275ZM169.433 101.452H167.778V91.1138H169.555C173.104 91.1138 174.568 92.8273 174.568 96.282C174.568 99.3742 172.96 101.452 169.433 101.452Z" fill="url(#paint0_linear_9_16)"/>
</g>
<defs>
<filter id="filter0_d_9_16" x="0" y="0" width="191" height="113" filterUnits="userSpaceOnUse" color-interpolation-filters="sRGB">
<feFlood flood-opacity="0" result="BackgroundImageFix"/>
<feColorMatrix in="SourceAlpha" type="matrix" values="0 0 0 0 0 0 0 0 0 0 0 0 0 0 0 0 0 0 127 0" result="hardAlpha"/>
<feOffset dy="4"/>
<feGaussianBlur stdDeviation="2"/>
<feComposite in2="hardAlpha" operator="out"/>
<feColorMatrix type="matrix" values="0 0 0 0 0 0 0 0 0 0 0 0 0 0 0 0 0 0 0.25 0"/>
<feBlend mode="normal" in2="BackgroundImageFix" result="effect1_dropShadow_9_16"/>
<feBlend mode="normal" in="SourceGraphic" in2="effect1_dropShadow_9_16" result="shape"/>
</filter>
<linearGradient id="paint0_linear_9_16" x1="95.5004" y1="0" x2="95.5004" y2="105.001" gradientUnits="userSpaceOnUse">
<stop stop-color="white"/>
<stop offset="1" stop-color="#F4F4F4"/>
</linearGradient>
</defs>
</svg>
