<svg width="240" height="78" viewBox="0 0 240 78" fill="none" xmlns="http://www.w3.org/2000/svg">
<g filter="url(#filter0_d_9_14)">
<path d="M38.7913 0C19.577 0 4 15.6703 4 35.0002C4 54.3309 19.577 70 38.7913 70C58.0076 70 73.5829 54.3309 73.5829 35.0002C73.5829 15.6716 58.0076 0.0016718 38.7908 0.0016718L38.7913 0V0ZM54.7463 50.4803C54.1231 51.5085 52.7854 51.8345 51.7634 51.2034C43.5947 46.1838 33.3114 45.047 21.201 47.8305C20.034 48.098 18.8707 47.3624 18.6048 46.188C18.3377 45.0135 19.066 43.8433 20.2359 43.5758C33.4888 40.5297 44.8569 41.8413 54.0276 47.4794C55.0496 48.1106 55.3736 49.4522 54.7463 50.4803V50.4803ZM59.0047 40.9502C58.2195 42.2341 56.5494 42.6396 55.2739 41.8496C45.9221 36.0668 31.6667 34.3921 20.6052 37.77C19.1707 38.2059 17.6555 37.3926 17.2201 35.9519C16.788 34.5087 17.5969 32.9873 19.029 32.5485C31.6642 28.6916 47.372 30.5599 58.1115 37.1991C59.3869 37.989 59.7899 39.6692 59.0047 40.9506V40.9502ZM59.3703 31.0263C48.1572 24.3261 29.6571 23.71 18.9513 26.9789C17.2322 27.5034 15.4141 26.5271 14.8932 24.7976C14.3722 23.0672 15.3419 21.2395 17.0622 20.7137C29.3518 16.9605 49.7816 17.6857 62.6914 25.3957C64.2411 26.3189 64.7479 28.328 63.8298 29.8815C62.9158 31.4372 60.9133 31.95 59.3719 31.0263H59.3703ZM98.6555 32.3103C92.648 30.8692 91.5803 29.8577 91.5803 27.7324C91.5803 25.7246 93.4582 24.3733 96.2542 24.3733C98.9629 24.3733 101.647 25.3994 104.464 27.5117C104.547 27.5757 104.655 27.6012 104.758 27.5845C104.867 27.5686 104.958 27.5105 105.02 27.4231L107.953 23.2637C108.074 23.0923 108.041 22.8562 107.879 22.7254C104.526 20.0199 100.754 18.7046 96.3414 18.7046C89.8562 18.7046 85.3236 22.6204 85.3236 28.2231C85.3236 34.2312 89.233 36.3586 95.9883 38.0007C101.734 39.3327 102.706 40.4486 102.706 42.4431C102.706 44.6541 100.745 46.0291 97.5878 46.0291C94.0814 46.0291 91.2189 44.838 88.0199 42.0544C87.941 41.9834 87.833 41.9541 87.7332 41.9583C87.6252 41.9666 87.5297 42.0168 87.4632 42.0962L84.1728 46.0333C84.0357 46.2005 84.0523 46.4429 84.2102 46.585C87.9327 49.9286 92.5109 51.6924 97.4548 51.6924C104.443 51.6924 108.959 47.8514 108.959 41.904C108.971 36.8856 105.984 34.1062 98.668 32.3157L98.6555 32.3103V32.3103ZM124.771 26.3503C121.742 26.3503 119.258 27.5506 117.205 30.0103V27.2418C117.205 27.0232 117.031 26.8451 116.815 26.8451H111.435C111.219 26.8451 111.044 27.0232 111.044 27.2418V58.0035C111.044 58.2208 111.219 58.4006 111.435 58.4006H116.815C117.031 58.4006 117.205 58.2208 117.205 58.0035V48.2945C119.258 50.6057 121.742 51.7384 124.771 51.7384C130.4 51.7384 136.1 47.3791 136.1 39.0456C136.109 30.7103 130.409 26.3498 124.775 26.3498L124.771 26.3503ZM129.844 39.0456C129.844 43.2874 127.247 46.2507 123.525 46.2507C119.848 46.2507 117.073 43.1536 117.073 39.0456C117.073 34.9371 119.848 31.8409 123.525 31.8409C127.185 31.8405 129.844 34.8698 129.844 39.0452V39.0456ZM150.703 26.3503C143.454 26.3503 137.775 31.9659 137.775 39.1363C137.775 46.2298 143.416 51.7844 150.616 51.7844C157.891 51.7844 163.587 46.188 163.587 39.0456C163.587 31.9274 157.928 26.3511 150.703 26.3511V26.3503V26.3503ZM150.703 46.2925C146.848 46.2925 143.94 43.1745 143.94 39.0435C143.94 34.8936 146.748 31.8823 150.616 31.8823C154.496 31.8823 157.421 34.999 157.421 39.1342C157.421 43.2832 154.596 46.2925 150.703 46.2925V46.2925ZM179.066 26.8451H173.146V20.7572C173.146 20.539 172.972 20.361 172.756 20.361H167.376C167.159 20.361 166.981 20.539 166.981 20.7572V26.8451H164.397C164.181 26.8451 164.006 27.0232 164.006 27.2418V31.8923C164.006 32.1105 164.181 32.2889 164.397 32.2889H166.981V44.3239C166.981 49.1847 169.386 51.6506 174.135 51.6506C176.063 51.6506 177.662 51.2494 179.17 50.3884C179.295 50.3215 179.37 50.1878 179.37 50.0457V45.6154C179.37 45.4816 179.299 45.3521 179.183 45.281C179.066 45.2058 178.921 45.2016 178.8 45.2643C177.766 45.7867 176.765 46.0291 175.643 46.0291C173.919 46.0291 173.146 45.2392 173.146 43.4755V32.291H179.066C179.282 32.291 179.457 32.113 179.457 31.8944V27.2443C179.465 27.0257 179.291 26.8476 179.071 26.8476L179.066 26.8451V26.8451ZM199.689 26.8689V26.1212C199.689 23.9215 200.529 22.9406 202.407 22.9406C203.528 22.9406 204.43 23.1646 205.439 23.5032C205.564 23.5424 205.693 23.5228 205.792 23.448C205.896 23.3732 205.954 23.2532 205.954 23.1262V18.5663C205.954 18.392 205.846 18.2378 205.676 18.1864C204.613 17.8675 203.25 17.5402 201.206 17.5402C196.241 17.5402 193.611 20.3547 193.611 25.6765V26.8217H191.027C190.811 26.8217 190.633 26.9998 190.633 27.2179V31.8923C190.633 32.1105 190.811 32.2889 191.027 32.2889H193.611V50.8481C193.611 51.0697 193.79 51.2452 194.006 51.2452H199.382C199.602 51.2452 199.777 51.0697 199.777 50.8481V32.2902H204.8L212.494 50.8481C211.621 52.7958 210.761 53.1845 209.59 53.1845C208.642 53.1845 207.641 52.9003 206.623 52.3361C206.528 52.2859 206.411 52.2775 206.312 52.3068C206.208 52.3444 206.121 52.4196 206.079 52.52L204.255 56.5448C204.168 56.7371 204.243 56.9586 204.426 57.0589C206.328 58.0955 208.044 58.5385 210.167 58.5385C214.139 58.5385 216.337 56.6744 218.268 51.6673L227.6 27.4106C227.649 27.2886 227.633 27.1506 227.558 27.0424C227.487 26.935 227.367 26.8702 227.238 26.8702H221.638C221.467 26.8702 221.318 26.9776 221.264 27.136L215.526 43.6176L209.245 27.1251C209.187 26.9718 209.041 26.8702 208.879 26.8702H199.689V26.8689V26.8689ZM187.733 26.8451H182.353C182.137 26.8451 181.958 27.0232 181.958 27.2418V50.8481C181.958 51.0697 182.137 51.2452 182.353 51.2452H187.733C187.949 51.2452 188.127 51.0697 188.127 50.8481V27.2434C188.127 27.0248 187.953 26.8468 187.733 26.8468V26.8451ZM185.074 16.0958C182.943 16.0958 181.214 17.8311 181.214 19.9748C181.214 22.1197 182.943 23.8572 185.074 23.8572C187.205 23.8572 188.929 22.1197 188.929 19.9748C188.929 17.8315 187.201 16.0958 185.074 16.0958ZM232.194 34.4356C230.067 34.4356 228.41 32.7157 228.41 30.6272C228.41 28.5387 230.088 26.7991 232.215 26.7991C234.342 26.7991 236 28.5186 236 30.6054C236 32.6939 234.322 34.4356 232.194 34.4356ZM232.215 27.1778C230.275 27.1778 228.809 28.7284 228.809 30.6272C228.809 32.5251 230.267 34.0548 232.194 34.0548C234.135 34.0548 235.601 32.5054 235.601 30.6054C235.601 28.7075 234.143 27.1778 232.215 27.1778V27.1778ZM233.054 30.9971L234.126 32.505H233.221L232.257 31.1216H231.43V32.505H230.674V28.5077H232.444C233.37 28.5077 233.977 28.9829 233.977 29.7829C233.981 30.4383 233.603 30.8387 233.059 30.9971H233.054ZM232.415 29.1936H231.43V30.4579H232.415C232.905 30.4579 233.2 30.2159 233.2 29.8251C233.2 29.4139 232.905 29.1936 232.415 29.1936V29.1936Z" fill="white"/>
</g>
<defs>
<filter id="filter0_d_9_14" x="0" y="0" width="240" height="78" filterUnits="userSpaceOnUse" color-interpolation-filters="sRGB">
<feFlood flood-opacity="0" result="BackgroundImageFix"/>
<feColorMatrix in="SourceAlpha" type="matrix" values="0 0 0 0 0 0 0 0 0 0 0 0 0 0 0 0 0 0 127 0" result="hardAlpha"/>
<feOffset dy="4"/>
<feGaussianBlur stdDeviation="2"/>
<feComposite in2="hardAlpha" operator="out"/>
<feColorMatrix type="matrix" values="0 0 0 0 0 0 0 0 0 0 0 0 0 0 0 0 0 0 0.25 0"/>
<feBlend mode="normal" in2="BackgroundImageFix" result="effect1_dropShadow_9_14"/>
<feBlend mode="normal" in="SourceGraphic" in2="effect1_dropShadow_9_14" result="shape"/>
</filter>
</defs>
</svg>
